<?xml version="1.0" encoding="utf-8"?>
<!-- Generator: Adobe Illustrator 26.0.2, SVG Export Plug-In . SVG Version: 6.00 Build 0)  -->
<svg version="1.1" id="Layer_1" xmlns="http://www.w3.org/2000/svg" xmlns:xlink="http://www.w3.org/1999/xlink" x="0px" y="0px"
	 viewBox="0 0 50.1 50.1" style="enable-background:new 0 0 50.1 50.1;" xml:space="preserve">
<style type="text/css">
	.st0{opacity:0.5;}
	.st1{fill:#FFFAF9;}
	.st2{fill:#EDECED;}
	.st3{fill:#DFDFDF;}
	.st4{fill:#EE4426;}
</style>
<g class="st0">
	<circle class="st1" cx="25" cy="25" r="23.1"/>
</g>
<g>
	<g>
		<path class="st2" d="M38.6,13.7c-1.7,1.2-3.4,2.4-5.1,3.6c-2.7,1.9-5.5,3.8-8.2,5.7c-0.2,0.1-0.3,0.2-0.5,0.1
			c-4.4-3.1-8.9-6.1-13.3-9.2l-0.1-0.1c0.2,0,0.3,0,0.5,0c8.7,0,17.4,0,26.1,0C38.3,13.7,38.5,13.7,38.6,13.7z"/>
		<path class="st2" d="M37.1,36.5c-0.2,0-0.2,0-0.4,0c-7.8,0-15.7,0-23.5,0c-0.2,0-0.2,0-0.4,0c0-0.2,0-0.3,0-0.4
			c0-5.4,0-10.8,0-16.1c0-0.2,0-0.2,0-0.4c0.2-0.1,0.2,0,0.2,0.1c3.9,2.7,7.8,5.5,11.7,8.2c0.1,0,0.1,0.1,0.2,0.1
			c0.2,0,0.3,0.1,0.5,0.2c1.9,1.3,3.8,2.6,5.6,3.9c1.6,1.1,3.3,2.3,4.9,3.4c0.3,0.2,0.6,0.5,0.9,0.7C37,36.2,37.2,36.2,37.1,36.5z"
			/>
		<path class="st3" d="M37.1,36.5c-0.2-0.3-0.6-0.5-0.8-0.7c-1.7-1.1-3.3-2.3-4.9-3.5c-2.1-1.4-4.2-3-6.3-4.4c0.2,0,0.3-0.2,0.5-0.2
			c3.9-2.7,7.6-5.4,11.5-8c0.1-0.1,0.2-0.1,0.2-0.2c0.1,0.2,0.1,0.2,0.1,0.4c0,5.4,0,10.8,0,16.1c0,0.2,0.1,0.3,0.1,0.5
			C37.3,36.5,37.2,36.5,37.1,36.5z"/>
	</g>
	<path class="st4" d="M40.8,16.9v-1.1c0-1.3-1-2.3-2.3-2.3c-0.2,0.1-0.3,0.1-0.4,0.2c-1.2,0.8-2.4,1.7-3.6,2.6
		c-3,2.1-6.1,4.2-9.2,6.4c-0.2,0.2-0.4,0.2-0.6,0c-1.7-1.2-3.4-2.4-5.1-3.6C17,17.5,14.5,15.7,12,14c-0.2-0.1-0.3-0.2-0.5-0.2
		c-1.2-0.1-2.3,0.8-2.2,2.2c0,0.4,0,0.8,0,1.1c0,0,0,0.2,0,0.3c0,3,0,5.8,0,8.8v6.1l0,0c0,1.2,0,2.5,0,3.7c0,0.2,0,0.4,0.2,0.5
		c0.5,0,1.5,0,3.2,0c0.1,0,0.3-0.1,0.3-0.3c0-0.9,0-4,0-4c0-0.4,0-0.7,0-1.1c0-3.7,0-7.3,0-11.1c0-0.2-0.1-0.3,0.1-0.4
		c0.1-0.1,0.2,0.1,0.3,0.2c3.5,2.4,7,4.9,10.5,7.3c0.4,0.2,0.8,0.6,1.1,0.8c0.2,0,0.3-0.1,0.5-0.2c0.6-0.4,1.2-0.8,1.7-1.2
		c3.2-2.2,6.4-4.4,9.5-6.7c0.1-0.1,0.2-0.2,0.4-0.2c0.2,0.1,0.1,0.3,0.1,0.5c0,3.3,0,6.6,0,9.9c0,2,0,3.9,0,5.8c0,0.2,0,0.4,0.2,0.5
		c0.5,0,1.5,0,3.2,0c0.1,0,0.3-0.1,0.3-0.3c0-0.9,0.1-3.7,0.1-3.8c0-4.9,0-9.8,0-14.8C40.9,17.4,40.9,17.2,40.8,16.9z"/>
</g>
</svg>
