<?xml version="1.0" encoding="utf-8"?>
<!-- Generator: Adobe Illustrator 26.0.2, SVG Export Plug-In . SVG Version: 6.00 Build 0)  -->
<svg version="1.1" id="Layer_1" xmlns="http://www.w3.org/2000/svg" xmlns:xlink="http://www.w3.org/1999/xlink" x="0px" y="0px"
	 viewBox="0 0 50.1 50.1" style="enable-background:new 0 0 50.1 50.1;" xml:space="preserve">
<style type="text/css">
	.st0{fill:#2E77B5;}
	.st1{fill:#FEFEFE;}
</style>
<g>
	<circle class="st0" cx="25" cy="25" r="23.1"/>
	<g>
		<path class="st1" d="M26.3,23.2c0.6-0.8,1.3-1.5,2.3-1.9c1.8-0.8,3.7-0.7,5.4,0.2c1.3,0.6,1.9,1.8,2.2,3.1c0.2,1,0.3,1.9,0.4,2.9
			c0,2.9,0,5.8,0,8.6c0,0.3-0.1,0.4-0.4,0.4c-1.3,0-2.6,0-4,0c-0.3,0-0.4-0.1-0.4-0.4c0-2.4,0-4.8,0-7.2c0-0.7,0-1.4-0.2-2.1
			c-0.2-1.1-0.9-1.7-1.8-1.8c-1.3-0.2-2.4,0.3-2.9,1.2c-0.3,0.6-0.4,1.2-0.5,1.9c0,2.6,0,5.2,0,7.8c0,0.5-0.1,0.6-0.6,0.6
			c-1.3,0-2.5,0-3.8,0c-0.3,0-0.4-0.1-0.4-0.4c0-4.9,0-9.8,0-14.7c0-0.2,0.1-0.3,0.3-0.3c1.3,0,2.6,0,3.9,0c0.3,0,0.3,0.1,0.3,0.4
			C26.2,22.1,26.3,22.6,26.3,23.2z"/>
		<path class="st1" d="M18.7,28.8c0,2.4,0,4.9,0,7.3c0,0.4-0.1,0.5-0.4,0.5c-1.3,0-2.6,0-4,0c-0.3,0-0.4-0.1-0.4-0.4
			c0-4.9,0-9.8,0-14.7c0-0.3,0.1-0.4,0.4-0.4c1.3,0,2.7,0,4,0c0.3,0,0.4,0.1,0.4,0.4C18.7,24,18.7,26.4,18.7,28.8z"/>
		<path class="st1" d="M19.1,16.3c0,1.5-1.2,2.8-2.8,2.8c-1.5,0-2.7-1.2-2.8-2.7c0-1.5,1.2-2.8,2.8-2.8
			C17.8,13.5,19.1,14.8,19.1,16.3z"/>
	</g>
</g>
</svg>
