<?xml version="1.0" encoding="utf-8"?>
<!-- Generator: Adobe Illustrator 26.0.2, SVG Export Plug-In . SVG Version: 6.00 Build 0)  -->
<svg version="1.1" id="Layer_1" xmlns="http://www.w3.org/2000/svg" xmlns:xlink="http://www.w3.org/1999/xlink" x="0px" y="0px"
	 viewBox="0 0 412.1 137.4" style="enable-background:new 0 0 412.1 137.4;" xml:space="preserve">
<style type="text/css">
	.st0{fill:#FF0000;}
	.st1{fill:#0000FF;}
	.st2{fill:#00FF00;}
	.st3{fill:#0B111E;}
	.st4{fill:#ffffff8b;}
</style>
<path class="st0" d="M323,39.9h-7.4h-0.8h-7.4c-14.7,0-10.7,14.8-10.7,14.8l5.2,18.8c1.4,4.9,6.3,4.9,6.3,4.9h6.6h0.8h6.6
	c0,0,4.9,0,6.3-4.9l5.2-18.8C333.6,54.7,337.7,39.9,323,39.9L323,39.9z"/>
<path class="st1" d="M398.9,39.9h-7.4h-0.8h-7.4c-14.7,0-10.7,14.8-10.7,14.8l5.2,18.8c1.4,4.9,6.3,4.9,6.3,4.9h6.6h0.8h6.6
	c0,0,4.9,0,6.3-4.9l5.2-18.8C409.5,54.7,413.6,39.9,398.9,39.9L398.9,39.9z"/>
<path class="st2" d="M360.9,78.4h-7.4h-0.8h-7.4c-14.7,0-10.7-14.8-10.7-14.8l5.2-18.8c1.4-4.9,6.3-4.9,6.3-4.9h6.6h0.8h6.6
	c0,0,4.9,0,6.3,4.9l5.2,18.8C371.6,63.6,375.7,78.4,360.9,78.4L360.9,78.4z"/>
<path class="st3" d="M274.1,91.5c0.1-0.6,0.3-1.1,0.6-1.6c0.2-0.5,0.5-0.9,0.9-1.2c0.3-0.3,0.6-0.4,1-0.4h0.1c0.6,0,1.1,0.3,1.4,0.8
	c0.3,0.5,0.5,1.1,0.6,1.8c0,0.4,0.1,0.8,0.1,1.2c0,0.3,0,0.6,0,0.9c-0.2,2-0.6,3.7-1.2,5.2c-0.2,0-0.4,0-0.5,0
	c-0.7-0.1-1.3-0.3-1.8-0.6c-0.6-0.4-0.9-1-1.1-1.8c-0.1-0.5-0.2-1.1-0.2-1.8c0-0.3,0-0.6,0-0.9C273.8,92.6,273.9,92.1,274.1,91.5
	L274.1,91.5z M267.5,109.6c-0.1,0-0.1,0.1-0.1,0.2v0.1c0,0.3,0.2,0.5,0.5,0.8c0.4,0.2,0.8,0.4,1.3,0.5c0.1,0,0.2,0,0.3,0h0.2
	c0.3,0,0.6-0.1,0.8-0.2c0.1-0.1,0.5-0.3,1.1-0.8c0.6-0.4,1.3-1,2.2-1.8c0.9-0.7,1.8-1.6,2.8-2.6c1-1,1.9-2.1,2.7-3.3
	c0.9-1.2,1.6-2.5,2.2-3.9c0.6-1.4,1-2.8,1.1-4.3c0-0.4,0.1-0.7,0.1-1c0-1-0.1-2-0.4-2.8c-0.3-1.2-0.9-2.1-1.7-2.9
	c-0.8-0.7-1.9-1.2-3.2-1.3c-0.2,0-0.4,0-0.6,0c-0.6,0-1.3,0.1-1.9,0.2c-0.9,0.2-1.7,0.6-2.4,1.1c-0.7,0.5-1.4,1.2-1.9,2.1
	c-0.5,0.9-0.8,1.9-0.9,3.1c0,0.2,0,0.3,0,0.5c0,0.9,0.2,1.9,0.6,2.8c0.5,1.1,1.2,2.1,2.3,2.8c0.9,0.6,2,1,3.3,1.1c0.3,0,0.6,0,0.9,0
	C274.2,104.1,271.2,107.3,267.5,109.6L267.5,109.6L267.5,109.6z M294.1,97.8c-0.3,1.1-0.6,2.1-1,3.1c-0.4,1-1,1.8-1.5,2.4
	c-0.5,0.6-1.1,0.9-1.8,0.9h-0.1c-0.5,0-0.9-0.3-1.2-0.8c-0.3-0.5-0.5-1.2-0.7-2c-0.1-0.6-0.2-1.2-0.2-1.8c0-0.2,0-0.4,0-0.6
	c0-0.7,0.1-1.5,0.3-2.3c0.1-0.9,0.3-1.7,0.6-2.6c0.3-0.9,0.6-1.6,1-2.3c0.4-0.7,0.9-1.3,1.4-1.7c0.5-0.4,1.1-0.6,1.7-0.6h0.2
	c0.7,0,1.1,0.5,1.5,1.4c0.2,0.7,0.4,1.6,0.4,2.7c0,0.4,0,0.8,0,1.2C294.6,95.7,294.4,96.7,294.1,97.8L294.1,97.8z M292.5,86.4
	c-2.5,0-4.6,1.1-6.2,3.2c-1.8,2.3-2.7,5.4-3,9.3c0,0.2,0,0.4,0,0.6c0,0.6,0,1.2,0.1,1.8c0.1,0.9,0.4,1.7,0.7,2.5
	c0.3,0.8,0.9,1.5,1.5,2c0.7,0.5,1.4,0.8,2.3,0.9c0.2,0,0.3,0,0.5,0c1.3,0,2.4-0.3,3.3-1c1.1-0.7,2-1.7,2.8-2.9
	c0.8-1.2,1.5-2.6,1.9-4.1c0.5-1.5,0.7-3,0.8-4.4c0-0.4,0-0.7,0-1.1c0-2-0.4-3.6-1.1-4.7c-0.8-1.4-1.9-2.1-3.3-2.1
	C292.8,86.4,292.6,86.4,292.5,86.4L292.5,86.4L292.5,86.4z M306.5,104c-0.7,0.1-1.3,0.1-2,0.1c-1,0-1.8-0.1-2.6-0.3
	c0.3-0.2,0.6-0.4,0.9-0.6c0.9-0.6,1.9-1.3,2.8-2c1-0.8,1.9-1.6,2.7-2.5c0.8-0.9,1.5-1.9,2.1-3c0.5-1.1,0.8-2.3,0.8-3.7
	c0-1.2-0.2-2.2-0.7-3.1c-0.5-0.8-1.1-1.5-1.9-1.9c-0.8-0.4-1.7-0.7-2.7-0.7c-0.8,0-1.6,0.1-2.4,0.3c-0.8,0.2-1.5,0.6-2.2,1
	c-0.7,0.5-1.2,1.1-1.6,1.8c-0.4,0.8-0.6,1.7-0.6,2.8c0,0.5,0.1,0.9,0.4,1.2c0.3,0.3,0.7,0.5,1.2,0.6c0.5,0.1,1,0.2,1.6,0.2
	c0-0.4-0.1-0.9-0.1-1.4c0-0.7,0.1-1.5,0.4-2.2c0.2-0.7,0.6-1.3,1-1.8c0.4-0.5,1-0.7,1.6-0.7c0.4,0,0.8,0.1,1,0.4
	c0.2,0.3,0.4,0.6,0.5,1c0.1,0.4,0.2,0.8,0.2,1.3c0,1.7-0.3,3.3-1,4.7c-0.6,1.4-1.5,2.7-2.6,3.9c-1.1,1.2-2.2,2.5-3.5,3.7
	c-0.6,0-1,0.1-1.3,0.3c-0.3,0.2-0.6,0.5-0.7,0.8c-0.2,0.3-0.3,0.6-0.3,1c-0.1,0.3-0.1,0.6-0.1,0.8c1.9,0.6,3.8,0.9,5.8,1
	c0.2,0,0.4,0,0.6,0c1.7,0,3.2-0.3,4.5-0.9c1.4-0.7,2.3-1.9,2.6-3.6C309.7,103.3,308.3,103.8,306.5,104L306.5,104L306.5,104z
	 M322.6,90.2c-1.4,2.5-2.6,4.9-3.5,7c-1.1,2.5-2,4.9-2.7,7.2c-0.7,2.2-1,3.6-1,4.2c0.5,0.8,1.1,1.4,1.9,1.9c0.5,0.3,1,0.5,1.4,0.5
	c0.1,0,0.2,0,0.3-0.1c0.4-1.9,1-4.2,1.9-7.1c0.8-2.9,1.9-6,3.2-9.3c1.3-3.3,2.4-5.4,3.2-6.3c0.3-0.1,0.5-0.3,0.5-0.7
	c0,0,0-0.1,0-0.1c0-0.3-0.1-0.5-0.4-0.6c-0.1-0.1-0.3-0.1-0.4-0.1c-2,1.1-4.1,1.6-6.4,1.6c-1,0-1.8-0.7-2.5-2c-0.8,0-1.5,0.3-2.1,1
	c-0.6,0.6-1.1,1.4-1.5,2.4c-0.4,1-0.7,2-0.8,3c-0.1,0.7-0.2,1.4-0.2,2c0,0.3,0,0.6,0,0.8c0.1,0.8,0.3,1.4,0.6,1.8
	c0.5-2.1,1-3.7,1.6-4.7c0.6-1,1.2-1.6,1.7-1.9c0.7,0.2,1.5,0.3,2.2,0.3C320.8,91.1,321.8,90.8,322.6,90.2L322.6,90.2L322.6,90.2z
	 M332.5,89.3c-1,0.5-2.1,0.7-3.1,0.7c-0.7,0-1.5-0.1-2.2-0.3c0,0.9,0.2,1.5,0.6,1.8c0.3,0.3,0.8,0.4,1.3,0.4c1.5,0,3.2-0.7,5.2-1.9
	c-2.8,9.5-4.1,15-4.1,16.5c0.9,0.5,2.2,0.8,3.6,0.8c0.2-2.9,1.9-9.6,5-19.9c0-0.7-0.9-1.1-2.6-1.1C334.7,87.9,333.5,88.9,332.5,89.3
	L332.5,89.3z M355.3,86.2c-1.8,0.4-3.6,0.6-5.5,0.6c-1.5,0-3.1-0.1-4.7-0.4l-2.9,11c1.6,0,2.8,0.2,3.6,0.7c0.8,0.5,1.4,1.1,1.8,1.9
	c0.3,0.8,0.5,1.8,0.5,2.9c0,1-0.1,1.9-0.4,2.9c-0.2,0.9-0.6,1.7-1.1,2.4c-0.5,0.6-1.1,0.9-1.9,0.9c-0.6,0-1.1-0.2-1.3-0.5
	c-0.2-0.4-0.4-0.8-0.4-1.3c0-0.8,0.2-1.6,0.6-2.4c0.4-0.8,0.8-1.4,1.2-1.7c-0.7-0.3-1.5-0.4-2.4-0.4H342c-1,0-1.6,0.2-2,0.5
	c-0.4,0.9-0.7,1.7-0.7,2.6c0,0.9,0.2,1.7,0.6,2.5c0.4,0.8,1,1.4,1.8,1.9c0.8,0.5,2,0.7,3.4,0.7c1.2,0,2.2-0.2,3.1-0.7
	c0.9-0.5,1.7-1.1,2.3-1.8c0.6-0.8,1.1-1.6,1.4-2.6c0.3-1,0.5-1.9,0.5-2.9c0-2.1-0.5-3.8-1.6-5.3c-1.1-1.5-2.7-2.3-4.8-2.5l1.4-5.3
	c1.4,0.2,2.7,0.3,4.1,0.3c1,0,1.8-0.4,2.6-1C354.5,88.7,355,87.7,355.3,86.2L355.3,86.2L355.3,86.2z M365.6,97.8
	c-0.3,1.1-0.6,2.1-1,3.1c-0.4,1-1,1.8-1.5,2.4c-0.5,0.6-1.1,0.9-1.8,0.9H361c-0.5,0-0.9-0.3-1.2-0.8c-0.3-0.5-0.5-1.2-0.7-2
	c-0.1-0.6-0.2-1.2-0.2-1.8c0-0.2,0-0.4,0-0.6c0-0.7,0.1-1.5,0.3-2.3c0.1-0.9,0.3-1.7,0.6-2.6c0.3-0.9,0.6-1.6,1-2.3
	c0.4-0.7,0.9-1.3,1.4-1.7c0.5-0.4,1.1-0.6,1.7-0.6h0.2c0.7,0,1.1,0.5,1.5,1.4c0.2,0.7,0.4,1.6,0.4,2.7c0,0.4,0,0.8,0,1.2
	C366,95.7,365.8,96.7,365.6,97.8L365.6,97.8z M363.9,86.4c-2.5,0-4.6,1.1-6.2,3.2c-1.8,2.3-2.7,5.4-3,9.3c0,0.2,0,0.4,0,0.6
	c0,0.6,0,1.2,0.1,1.8c0.1,0.9,0.4,1.7,0.7,2.5c0.3,0.8,0.9,1.5,1.5,2c0.7,0.5,1.4,0.8,2.3,0.9c0.2,0,0.3,0,0.5,0
	c1.3,0,2.4-0.3,3.3-1c1.1-0.7,2-1.7,2.8-2.9c0.8-1.2,1.5-2.6,1.9-4.1c0.5-1.5,0.7-3,0.8-4.4c0-0.4,0-0.7,0-1.1c0-2-0.4-3.6-1.1-4.7
	c-0.8-1.4-1.9-2.1-3.3-2.1C364.2,86.4,364,86.4,363.9,86.4L363.9,86.4L363.9,86.4z M377.8,110.3c0-0.3,0.1-0.8,0.2-1.2
	c0.1-0.7,0.4-1.8,0.7-3.1l0.3-1.4c0.8-0.1,1.4-0.3,2-0.5c0.6-0.2,1-0.6,1.3-1c0.3-0.4,0.4-0.9,0.4-1.5v-0.1
	c-0.6,0.9-1.8,1.4-3.3,1.5c0.2-1,0.5-2.2,0.7-3.4c0.4-2,0.9-4.2,1.5-6.6c0.5-2.3,1.1-4.4,1.6-6.1c0-0.3-0.2-0.5-0.6-0.6
	c-0.3-0.1-0.7-0.2-1.1-0.2h-0.2c-0.4,0-0.9,0.1-1.5,0.2c-0.6,0.2-1.2,0.4-1.7,0.6c-0.2,0.7-1.5,3-3.7,6.8c-2.2,3.8-4,6.3-5.4,7.6
	c-0.4,0-0.7,0.2-1,0.5c-0.2,0.3-0.4,0.7-0.5,1.1c-0.1,0.4-0.1,0.7-0.1,1v0.1c1.2,0.1,2.5,0.2,3.9,0.3c1.2,0.1,2.5,0.2,3.7,0.3
	l-1,4.1C374.6,109.7,375.8,110.3,377.8,110.3L377.8,110.3L377.8,110.3z M378.1,91.6l-2.5,10.9c-1.4-0.2-2.8-0.4-4.3-0.8
	C372.3,100.9,374.6,97.5,378.1,91.6L378.1,91.6L378.1,91.6z M389.3,89.3c-1,0.5-2.1,0.7-3.1,0.7c-0.7,0-1.5-0.1-2.2-0.3
	c0,0.9,0.2,1.5,0.6,1.8c0.3,0.3,0.8,0.4,1.3,0.4c1.5,0,3.2-0.7,5.2-1.9c-2.8,9.5-4.1,15-4.1,16.5c0.9,0.5,2.2,0.8,3.6,0.8
	c0.2-2.9,1.9-9.6,5-19.9c0-0.7-0.9-1.1-2.6-1.1C391.6,87.9,390.3,88.9,389.3,89.3L389.3,89.3z M402.3,89.3c-1,0.5-2.1,0.7-3.1,0.7
	c-0.7,0-1.5-0.1-2.2-0.3c0,0.9,0.2,1.5,0.6,1.8c0.3,0.3,0.8,0.4,1.3,0.4c1.5,0,3.2-0.7,5.2-1.9c-2.8,9.5-4.1,15-4.1,16.5
	c0.9,0.5,2.2,0.8,3.6,0.8c0.2-2.9,1.9-9.6,5-19.9c0-0.7-0.9-1.1-2.6-1.1C404.5,87.9,403.3,88.9,402.3,89.3L402.3,89.3z"/>
<path class="st4" d="M171.9,92.5c4.3,6.9,10.7,10.3,19,10.3c4.2,0,7.6-1.2,10.2-3.6c2.6-2.4,4-5.5,4.1-9.3c0-1.8-0.4-3.2-1.1-4.4
	c-0.7-1.2-1.7-2-2.9-2.6c-1.2-0.6-2.4-0.9-3.6-0.9c-1.3,0-2.5,0.3-3.7,0.9c-1.1,0.6-1.9,1.5-2.4,2.7c-0.2,0.5-0.3,1.2-0.3,1.8
	c0,0.8,0.2,1.7,0.5,2.7c0.7-0.8,1.5-1.4,2.3-1.7c0.8-0.3,1.6-0.5,2.4-0.5c1.1,0,2,0.3,2.8,1c0.8,0.7,1.2,1.7,1.2,3.2
	c-0.1,2.1-0.8,3.9-2.1,5.3c-1.3,1.4-3.2,2.2-5.7,2.2c-5.8,0-11-3.9-15.4-11.7c-2.6-4-5.7-11.2-9.3-21.6c1-0.3,1.9-0.7,2.7-1.2
	c1.8-1.1,3.1-2.2,4.1-3.3c1-1,1.8-2.6,2.6-4.5c0.8-2,1.2-4.3,1.2-6.9c-0.1-5.1-1.8-8.4-3.6-10.6c0-0.1-0.1-0.1-0.1-0.2
	c-0.1-0.1-0.2-0.2-0.2-0.2c-0.1-0.1-0.2-0.2-0.3-0.3c-1.5-1.5-3-2.3-3.8-2.7c-5.2-2.8-11.4-2-13.4-1.5c-2,0.5-3.7,1.3-5.2,2.1
	c-2.5,1.4-4.6,3-6.1,5c-1.6,1.9-2.7,3.9-3.4,6c-0.6,1.8-0.9,3.5-0.9,5.1c0,0.3,0,0.5,0,0.8c0.1,1.8,0.6,3.3,1.5,4.4
	c0.9,1.1,2.1,1.7,3.6,1.7c0.7,0,1.2-0.1,1.6-0.2c0.4-0.1,0.8-0.3,1.2-0.5c0.1,0,0.1-0.1,0.2-0.1c-1.5-1-2.5-2.4-3.1-4.2
	c-0.3-0.9-0.4-1.9-0.4-2.9c0-0.9,0.1-1.7,0.3-2.6c0.4-2,1.2-3.9,2.5-5.6c1.2-1.8,2.8-3.2,4.7-4.4c1.9-1.2,4.1-1.7,6.6-1.7
	c10.5,0,10.8,12,10.8,13.5c0,2.8-0.4,5.2-1.1,7c-0.7,1.8-1.9,3.3-3.5,4.5c-1.6,1.2-3.2,1.8-4.7,1.8h-0.4c0.2-0.7,0.3-1.4,0.5-2.1
	c1.8-7.3,2.7-12.4,2.7-15.4c-0.8-0.5-1.7-0.8-2.8-0.8c-2.3,0.1-3.9,0.7-4.7,1.7c0.2,0.9,0.3,1.9,0.3,3.1c0,3.1-0.7,7.3-2,12.7
	c-1.9,7.5-3.7,13.4-5.4,17.8c0.8,0.5,1.7,0.8,2.8,0.8c0.3,0,0.7,0,1-0.1c1.6-0.2,2.8-0.8,3.7-1.7c0.9-3.9,2.1-8.6,3.5-14.1
	c0.3,0.1,0.7,0.1,1.1,0.1c0,0-0.1,0-0.1,0.1C164.4,77.7,167.8,86.3,171.9,92.5L171.9,92.5L171.9,92.5z M197.3,71.1
	c0.3-1.8,0.8-3.6,1.3-5.5c0.5-1.8,1-3.6,1.6-5.2c0.4-1.3,0.8-2.4,1.1-3.3c-0.3-0.3-0.7-0.5-1.2-0.7c-0.5-0.2-1.1-0.2-1.7-0.2
	c-1.1,0-2.1,0.2-3,0.5c-0.9,0.3-1.5,0.9-1.8,1.8c-0.1,0.2-0.1,0.4-0.2,0.6c-0.1,0.2-0.1,0.3-0.1,0.4c-0.9-1-1.9-1.8-3-2.4
	c-1.1-0.6-2.3-0.9-3.6-0.9c-0.7,0-1.3,0.2-1.9,0.6c-0.6,0.4-1.1,0.9-1.6,1.5c-0.9,1.2-1.7,2.6-2.4,4.3c-0.8,2-1.4,4-1.8,6.2
	c-0.3,1.6-0.6,3.1-0.8,4.4c-0.2,1.3-0.2,2.4-0.2,3.1c0,0.5,0.1,1.1,0.3,1.8c0.2,0.7,0.5,1.4,1,2c0.3,0.4,0.8,0.7,1.3,1
	c0.5,0.3,1.2,0.4,1.9,0.4c1,0,2-0.5,3-1.4c1.1-1,2.1-2.4,3-4c0.7-1.3,1.3-2.6,1.8-4c-0.3,1.6-0.4,3.1-0.4,4.3c0,0.7,0.1,1.4,0.3,2.2
	c0.2,0.8,0.7,1.5,1.3,2c0.6,0.6,1.6,0.9,2.8,0.9c0.9,0,1.7-0.3,2.5-1c0.8-0.7,1.6-1.5,2.4-2.6c0.8-1.1,1.5-2.2,2.1-3.5
	c1.1-2.2,2.1-4.3,2.7-6.2c0.7-1.9,1-3.2,1-3.6c-0.4,0.9-1,2.3-1.8,4c-0.9,1.8-1.8,3.4-2.7,5c-0.6,0.9-1.1,1.5-1.6,2.1
	c-0.5,0.5-0.9,0.8-1.3,0.8c-0.3,0-0.5-0.1-0.6-0.4c-0.1-0.3-0.1-0.6-0.1-0.9C196.8,73.9,197,72.6,197.3,71.1L197.3,71.1L197.3,71.1z
	 M190.8,66.8c-0.7,1.9-1.4,3.7-2.2,5.5c-0.5,1.2-1.1,2.2-1.6,2.9c-0.5,0.8-0.9,1.1-1.3,1.1c-0.3,0-0.5-0.2-0.6-0.5
	c-0.1-0.3-0.1-0.7-0.1-1c0-0.6,0.2-2.2,0.6-4.7c0.2-1.3,0.5-2.7,0.9-4.1c0.5-2.1,1.1-3.8,1.8-5.1c0.6-1.1,1.2-1.7,1.8-1.7
	c0.8,0,1.6,0.7,2.6,2C192.4,62.2,191.8,64.1,190.8,66.8L190.8,66.8L190.8,66.8z M213.3,56.7c-0.9-0.6-1.9-0.9-3-0.9
	c-1,0-2,0.3-3,0.8c-1,0.5-1.9,1.4-2.5,2.5c-0.7,1.1-1,2.6-1,4.4c0,1.3,0.1,2.5,0.4,3.7c0.3,1.2,0.6,2.4,1,3.5c0.1,0.3,0.2,0.7,0.3,1
	c-2.7,2.6-4.1,5.3-4.1,7.9c0,1.2,0.4,2.2,1,2.8c0.7,0.7,1.6,1,2.7,1c2.1,0,3.9-0.8,5.4-2.5c1.5-1.6,2.3-3.8,2.3-6.6
	c0-1.1-0.1-2.2-0.3-3.2c-0.2-0.9-0.4-1.7-0.7-2.5c3.1-2.2,5.9-3.6,8.5-4.2c-2.6,0-5.5,1.1-8.9,3.1c-0.3-1-0.6-2.1-0.9-3.2
	c-0.3-1.1-0.4-2.3-0.4-3.5c0-0.8,0.2-1.4,0.5-1.7c0.3-0.4,0.7-0.5,1.1-0.5c0.5,0,0.9,0.2,1.1,0.6c0.2,0.4,0.3,0.8,0.3,1.3
	c0,0.7-0.1,1.3-0.4,1.8c0.5,0,0.9-0.3,1.2-1c0.3-0.6,0.5-1.4,0.5-2.2C214.6,58.1,214.2,57.3,213.3,56.7L213.3,56.7z M203.6,78.8
	c0-1.6,0.8-3.4,2.4-5.6c0.3,1.2,0.5,2.5,0.5,3.7c0,0.8-0.2,1.7-0.5,2.6c-0.4,0.9-0.8,1.3-1.4,1.3C203.9,80.8,203.6,80.1,203.6,78.8
	L203.6,78.8L203.6,78.8z M217.8,52.4c-0.2,0.4-0.3,0.9-0.3,1.5c0,0.2,0,0.4,0,0.7c0.1,0.8,0.4,1.4,1,1.7c0.3,0,0.7-0.1,1.1-0.1
	c-0.9,3.2-1.7,6.5-2.5,9.9c-1.2,4.9-1.8,8.3-1.8,10.2c0,0.7,0.1,1.4,0.3,2.2c0.2,0.8,0.7,1.5,1.3,2c0.6,0.6,1.6,0.9,2.8,0.9
	c1.2,0,2.4-0.5,3.5-1.5c1.1-1,2.2-2.3,3.2-3.8c1-1.5,1.8-3.1,2.5-4.7s1.3-3,1.7-4.3c0.4-1.3,0.6-2.1,0.6-2.6c-0.3,0.7-0.7,1.7-1.3,3
	c-0.6,1.3-1.3,2.6-2.2,4c-0.8,1.4-1.6,2.5-2.5,3.5c-0.8,1-1.6,1.5-2.2,1.5c-0.3,0-0.5-0.1-0.6-0.4c-0.1-0.3-0.1-0.6-0.1-0.9
	c0-1.6,0.5-4.6,1.6-9.1c0.9-3.5,1.8-7.1,2.8-10.7c1-0.2,1.9-0.4,2.8-0.8c1.4-0.5,2.2-1.1,2.4-1.9c-1.5,0.3-3,0.5-4.6,0.6l0.2-0.7
	c1.3-4.6,2.4-8.1,3.3-10.6c-0.3-0.3-0.7-0.6-1.2-0.7c-0.5-0.2-1.1-0.2-1.7-0.2c-1.4,0-2.9,0.3-4.4,0.9c-0.6,1.9-1.6,5.2-2.9,9.9
	l-0.3,1.2C219.7,52.7,218.8,52.5,217.8,52.4L217.8,52.4L217.8,52.4z M240.3,79.5c1.4-1.2,2.6-2.7,3.5-4.6c0.9-1.8,1.6-3.8,1.9-5.8
	c1.5-0.3,2.7-0.8,3.6-1.6c0.9-0.8,1.4-1.8,1.4-3.1c-0.4,1.1-1.1,2-1.9,2.6c-0.8,0.6-1.8,1.1-3,1.2c0.2-1.2,0.3-2.4,0.3-3.5
	c0-2.9-0.5-5.2-1.6-6.8c-1-1.6-2.5-2.4-4.5-2.4c-1.7,0-3.1,0.4-4.3,1.3c-1.2,0.9-2,2.2-2.4,4c-1.2,0.3-2,0.8-2.5,1.5
	c-0.7,1.7-1.3,3.5-1.8,5.3c-0.5,1.9-0.7,3.7-0.7,5.4c0,1.3,0.2,2.5,0.7,3.8c0.5,1.2,1.2,2.3,2.3,3.1c1,0.8,2.4,1.2,4,1.2
	C237.2,81.3,238.9,80.7,240.3,79.5L240.3,79.5z M237.9,59.5c0.5-0.2,1-0.3,1.5-0.3c1.2,0,2.1,0.6,2.6,1.7c0.5,1.1,0.7,2.3,0.7,3.7
	c0,1.2-0.1,2.4-0.3,3.7c-2.6-0.4-4.4-1.5-5.6-3.3c0.4-1.2,1-2.4,1.7-3.4c-0.5-0.4-1.2-0.6-1.9-0.8C237,60.2,237.4,59.7,237.9,59.5
	L237.9,59.5z M242.3,69.2c-0.2,1.3-0.6,2.5-1,3.7c-0.4,1.2-1,2.1-1.6,2.8c-0.6,0.7-1.3,1.1-2,1.1c-0.7,0-1.2-0.3-1.5-0.9
	c-0.3-0.6-0.5-1.3-0.6-2.1c-0.1-0.8-0.1-1.4-0.1-1.8c0-1.6,0.2-3.3,0.6-4.9C237.9,68.2,240,69,242.3,69.2L242.3,69.2L242.3,69.2z
	 M261.4,65c-0.6,1.7-1.3,3.4-2.1,5c-0.6,1.2-1.1,2.2-1.6,3c-0.5,0.8-1,1.2-1.4,1.2c-0.3,0-0.5-0.2-0.6-0.5c-0.1-0.3-0.1-0.7-0.1-1
	c0-0.4,0.1-1.1,0.2-2.2c0.2-1.1,0.4-2.2,0.7-3.6c0.4-1.7,0.9-3.4,1.5-4.9c0.3-0.9,0.7-1.6,1.2-2.2c0.4-0.6,0.9-0.8,1.4-0.8
	c0.7,0,1.5,0.6,2.4,1.7C262.7,61.6,262.2,63,261.4,65L261.4,65L261.4,65z M244.9,112.9c-2,2-4.3,3.6-6.8,4.8
	c-2.5,1.2-5.3,1.8-8.4,1.8c-2.8,0-5.2-0.5-7.1-1.6c-1.9-1.1-3.3-2.5-4.2-4.2c-0.9-1.7-1.4-3.5-1.4-5.4c0-1.9,0.5-3.7,1.5-5.4
	c1-1.7,2.4-3.1,4.4-4.2c1.9-1.1,4.4-1.6,7.3-1.6c2.4,0,4.7,0.4,7,1.2c2.3,0.8,4.5,1.9,6.7,3.3c2.2,1.4,4.3,3,6.5,4.8
	C248.7,108.7,247,110.9,244.9,112.9L244.9,112.9z M258.1,85.5c-1.9,7.6-3.9,13.5-6.1,17.6c-2.2-1.9-4.5-3.5-6.8-5
	c-2.3-1.4-4.8-2.6-7.2-3.4c-2.5-0.8-5.1-1.3-7.8-1.3c-3.3,0-6.1,0.5-8.5,1.6c-2.4,1.1-4.3,2.5-5.8,4.3c-1.5,1.8-2.5,3.7-3,5.9
	c-0.3,1.2-0.5,2.4-0.5,3.6c0,0.9,0.1,1.9,0.3,2.8c0.4,2.1,1.3,4.1,2.7,5.8c1.4,1.8,3.3,3.2,5.7,4.3c2.4,1.1,5.3,1.7,8.7,1.7
	c5.5,0,10.2-1.1,14.3-3.4c4.1-2.3,7.7-5.6,10.7-10c1.7,1.6,3.4,3.2,5.1,4.8c2.6,2.5,5.3,5,8,7.5c2.7,2.4,5.5,4.6,8.4,6.6
	c2.9,2,5.9,3.5,9,4.7c3.1,1.2,6.4,1.8,9.9,1.8c4.3,0,7.9-0.6,11-1.9c3.1-1.2,5.5-2.9,7.4-4.9c1.9-2,3.2-4.3,3.9-6.7
	c0.5-1.8,0.8-3.5,0.8-5.2c0-0.7,0-1.4-0.1-2.1c-0.3-2.4-6.3-1.2-6.2,0.8c0,0.4,0.1,0.8,0.1,1.2c0,1.5-0.2,3.1-0.7,4.6
	c-0.6,1.9-1.6,3.7-3,5.4c-1.4,1.6-3.2,3-5.4,4c-2.2,1-4.8,1.5-7.8,1.5c-3.2,0-6.2-0.6-9.1-1.7c-2.9-1.1-5.7-2.6-8.3-4.4
	c-2.7-1.9-5.3-3.9-7.8-6.2c-2.5-2.3-5.1-4.7-7.6-7.1c-1.9-1.9-3.8-3.7-5.7-5.4c2.5-4.4,4.8-9.8,6.7-16.3c0.9-3.2,1.8-6.4,2.6-9.7
	c0.8-3.5,1.6-7,2.3-10.6c1.3-7.1,2.3-11.5,3-13.4c-0.8-0.5-1.8-0.8-3-0.8c-0.3,0-0.7,0-1,0.1c-1.7,0.2-2.8,0.8-3.5,1.7
	c-0.1,0.3-0.2,0.6-0.4,1.1c-0.8-0.9-1.8-1.6-2.9-2.2c-1.1-0.5-2.2-0.8-3.4-0.8c-0.8,0-1.4,0.2-2.1,0.6c-0.6,0.4-1.2,0.9-1.8,1.6
	c-1.3,1.7-2.3,3.9-3.1,6.5c-0.6,1.9-1,3.7-1.2,5.4c-0.3,1.7-0.4,3.1-0.4,4c0,0.5,0.1,1.2,0.3,2c0.2,0.8,0.6,1.5,1.2,2.1
	c0.3,0.3,0.7,0.6,1.2,0.8c0.5,0.2,1,0.3,1.7,0.3c0.9,0,1.8-0.3,2.6-0.9c0.8-0.6,1.6-1.4,2.3-2.4c1.4-2.1,2.6-4.4,3.5-6.9
	C261.2,71.9,260.1,77.4,258.1,85.5L258.1,85.5L258.1,85.5z M281.8,52.3c0.9,0,1.7-0.3,2.4-0.8c0.8-0.7,1.3-1.6,1.5-2.8
	c0-0.2,0-0.4,0-0.6c0-0.9-0.3-1.7-0.8-2.5c-0.6-0.9-1.5-1.4-2.6-1.6c-0.2,0-0.3,0-0.5,0c-0.9,0-1.7,0.3-2.4,0.9
	c-0.8,0.7-1.3,1.6-1.5,2.8c0,0.2,0,0.4,0,0.6c0,0.9,0.3,1.8,0.8,2.5c0.6,0.9,1.5,1.4,2.6,1.6C281.4,52.3,281.6,52.3,281.8,52.3
	L281.8,52.3L281.8,52.3z M279,69.3c0.5-2.3,1.1-4.5,1.8-6.7c0.7-2.2,1.3-4,1.8-5.5c-0.3-0.3-0.6-0.5-1.1-0.7
	c-0.5-0.2-1.1-0.2-1.7-0.2c-1.4,0-2.9,0.3-4.4,0.9c-0.5,1.6-1.1,3.6-1.8,5.9c-0.7,2.3-1.2,4.7-1.7,7.1c-0.5,2.4-0.8,4.4-0.8,6.1
	c0,0.7,0.1,1.4,0.3,2.2c0.2,0.8,0.7,1.5,1.3,2c0.6,0.6,1.6,0.9,2.8,0.9s2.4-0.5,3.5-1.5c1.1-1,2.1-2.3,3-3.8
	c0.9-1.5,1.7-3.1,2.3-4.7c0.6-1.6,1.1-3,1.5-4.3c0.4-1.3,0.5-2.1,0.5-2.5c-0.4,1.4-1.1,2.9-2,4.8c-0.9,1.8-1.9,3.5-2.9,4.9
	c-1,1.5-1.9,2.2-2.5,2.2c-0.3,0-0.5-0.1-0.6-0.4c-0.1-0.3-0.1-0.6-0.1-0.9C278.2,73.5,278.4,71.6,279,69.3L279,69.3z"/>
<g>
	<path class="st3" d="M119.4,52.2c0.2,0,0.4,0,0.6,0c0.9,0,1.7-0.3,2.4-0.8c0.8-0.7,1.3-1.6,1.5-2.8c0-0.2,0-0.4,0-0.6
		c0-0.9-0.3-1.7-0.8-2.5c-0.6-0.9-1.5-1.4-2.6-1.6c-0.2,0-0.3,0-0.5,0c-0.9,0-1.7,0.3-2.4,0.9c-0.8,0.7-1.3,1.6-1.5,2.8
		c0,0.2,0,0.4,0,0.6c0,0.9,0.3,1.8,0.8,2.5C117.4,51.5,118.3,52,119.4,52.2z"/>
	<path class="st3" d="M137.3,82.7c-1.2-0.6-2.4-0.9-3.6-0.9c-1.3,0-2.5,0.3-3.7,0.9c-1.1,0.6-1.9,1.5-2.4,2.7
		c-0.2,0.5-0.3,1.2-0.3,1.8c0,0.8,0.2,1.7,0.5,2.7c0.7-0.8,1.5-1.4,2.3-1.7c0.8-0.3,1.6-0.5,2.4-0.5c1.1,0,2,0.3,2.8,1
		c0.8,0.7,1.2,1.5,1.2,2.6c-0.1,2.1-0.9,3.8-2.7,5.2c-1.7,1.4-3.8,2.3-6.2,2.7c-0.8,0.2-1.7,0.2-2.5,0.2c-1.5,0-3.1-0.3-4.5-0.8
		c-1.8-0.6-3.3-1.9-4.4-4c-1.1-2.1-1.7-5.1-1.7-8.9c0-5.6,2.1-15.2,6.2-28.8c-0.3-0.3-0.6-0.5-1.1-0.7c-0.5-0.2-1.1-0.2-1.7-0.2
		c-1.4,0-2.9,0.3-4.4,0.9c-1.5,4.8-2.7,9.2-3.6,13.4c-0.2,0.4-0.4,0.8-0.7,1.3c-0.8,1.3-1.5,2.4-2.3,3.3c-0.7,0.9-1.4,1.3-1.9,1.3
		c-0.3,0-0.5-0.1-0.6-0.4c-0.1-0.3-0.1-0.6-0.1-0.9c0-1.4,0.2-3,0.5-4.6c0.5-2.5,1.1-4.8,1.8-6.9c0.1-0.2,0.1-0.4,0.2-0.6
		c0.6-1.9,0.9-3.1,0.9-3.7c0-0.6-0.1-1-0.3-1.4c-0.2-0.4-0.4-0.7-0.7-0.9c-0.7-0.4-1.4-0.7-2.2-0.7c-1.1,0-2,0.3-2.9,0.9
		c-1.2,0.8-2.2,1.9-3.1,3.2c-1,1.3-1.9,2.8-2.8,4.5c-0.9,1.8-1.8,3.7-2.6,5.7c-0.8,2-1.5,4-2.1,6.1c-0.1,0-0.2-0.2-0.3-0.5
		c-0.1-0.4-0.2-0.7-0.2-1.1c0-1.5,0.3-3.9,1-7.2c0.3-1.3,0.5-2.6,0.9-4c0.5-2.2,1-4.3,1.6-6.4c0.8-2.8,1.6-5.6,2.5-8.3
		c0.8-2.4,1.5-4.7,2.4-7.1c-0.3-0.3-0.6-0.6-1.1-0.7c-0.5-0.2-1.1-0.2-1.7-0.2c-1.4,0-2.9,0.3-4.4,0.9c-0.5,1.6-1.1,3.4-1.7,5.5
		c-0.7,2.4-1.4,4.9-2.2,7.7c-1.4,5.2-2.4,10.1-3.2,14.7c-0.1,0.7-0.2,1.3-0.3,1.9c-1.4,3.2-2.5,4.8-3.1,4.8c-0.8,0-1.6-0.7-2.4-2
		c-0.9-1.3-1.7-2.8-2.5-4.5c-0.8-1.7-1.4-3-1.8-4.1c1-1.3,2.1-2.3,3.1-3c1-0.7,2-1.2,3-1.5c1-0.3,1.9-0.4,2.8-0.4
		c0.2-0.7,0.3-1.3,0.3-1.9c0-0.3,0-0.7-0.1-0.9c-0.2-0.6-0.5-1.1-0.9-1.4c-0.6-0.4-1.3-0.6-2.2-0.6c-0.9,0-1.7,0.2-2.5,0.7
		c-0.8,0.4-1.5,1-2.1,1.7c-0.6,0.7-1.2,1.5-1.8,2.3c-2.9,4.2-5.2,9.4-7,15.6c-0.3,0-0.5-0.5-0.5-1.6c0-1.8,0.5-4.8,1.6-9.2
		c1.1-4.3,2.3-8.7,3.6-13.2c1.3-4.5,2.5-8,3.4-10.6c-0.3-0.3-0.7-0.6-1.2-0.7c-0.5-0.2-1.1-0.2-1.7-0.2c-1.4,0-2.9,0.3-4.4,0.9
		c-1,2.9-2.1,6.5-3.3,10.9c-1.2,4.4-2.3,8.7-3.2,13.1c-0.4,1.7-0.7,3.3-0.9,4.7c-0.7,1.3-1.5,2.5-2.2,3.6c-1,1.5-1.9,2.2-2.5,2.2
		c-0.3,0-0.5-0.1-0.6-0.4c-0.1-0.3-0.1-0.6-0.1-0.9c0-1.5,0.3-3.4,0.8-5.7c0.5-2.3,1.1-4.5,1.8-6.7c0.7-2.2,1.3-4,1.8-5.5
		c-0.3-0.3-0.6-0.5-1.1-0.7c-0.5-0.2-1.1-0.2-1.7-0.2c-1.4,0-2.9,0.3-4.4,0.9c-0.5,1.6-1.1,3.6-1.8,5.9c-0.3,1.1-0.6,2.3-0.9,3.5
		c-0.4,0.9-1,1.9-1.8,3.2c-1.1,1.8-2.4,3.6-3.6,5.1c-1.3,1.6-2.2,2.4-2.9,2.4c-0.3,0-0.5-0.1-0.6-0.4c-0.1-0.3-0.1-0.6-0.1-0.9
		c0-1.6,0.4-4.2,1.3-7.8c0.9-3.6,1.8-7.4,2.9-11.2c0.8-2.4,1.4-4.7,1.9-6.9c0.5-2.2,0.8-4,0.8-5.4c0-0.3-0.1-0.7-0.2-1
		c-0.1-0.3-0.4-0.6-0.8-0.9c-0.4-0.2-1-0.3-1.8-0.3c-1.6,0-3.2,0.7-4.8,2.1c-1.5,1.4-3,3.3-4.4,5.6c-1.4,2.3-2.7,4.8-3.9,7.5
		c-1.2,2.7-2.3,5.4-3.2,8c-1,2.6-1.8,5-2.4,7.1c-0.6,2.1-1.1,3.6-1.4,4.7c-0.3,0-0.4-0.3-0.4-1V76c0-2.4,0.3-4.8,0.9-7.1
		c0.6-2.4,1.3-4.7,2.1-7.1c0.5-1.6,1.1-3.3,1.5-5c0.5-1.7,0.9-3.4,1.2-5.2c0.3-1.7,0.5-3.5,0.5-5.3c0-1.6-0.4-2.9-1.1-3.9
		c-0.8-1-2-1.5-3.6-1.5c-3,0-5.7,0.6-8.2,1.9c-2.5,1.2-4.6,2.9-6.5,5.1C8.8,50,7.2,52.4,6,55c-1.3,2.7-2.3,5.5-2.9,8.4
		c-0.7,2.9-1,5.7-1,8.5c0,4.5,0.6,8.5,1.7,11.9s2.7,6.3,4.8,8.7c2,2.4,4.4,4.3,7.1,5.8c2.7,1.5,5.7,2.6,8.8,3.3c3.2,0.7,6.5,1,9.8,1
		c3.9,0,7.6-0.3,11.3-1c3.7-0.7,7-1.8,10-3.3c3-1.5,5.5-3.6,7.4-6.1c0-0.5,0-1.1-0.1-1.8c-0.1-0.7-0.2-1.4-0.4-2.2
		c-0.2-0.7-0.5-1.3-0.9-1.8c-0.4-0.5-0.9-0.7-1.6-0.7c-1.2,3.2-3.1,5.7-5.8,7.6c-2.6,1.9-5.6,3.3-8.9,4.1c-3.3,0.8-6.5,1.3-9.6,1.3
		c-3,0-6-0.3-8.9-0.9c-2.9-0.6-5.6-1.6-8-2.9c-2.5-1.4-4.7-3.2-6.5-5.4c-1.9-2.2-3.3-5-4.4-8.3c-1.1-3.3-1.6-7.1-1.6-11.5
		c0-3,0.5-6,1.4-9c0.9-3,2.2-5.7,3.6-8.1c1.5-2.4,3.1-4.3,4.8-5.8c1.7-1.5,3.3-2.2,4.9-2.2c0.7,0,1.3,0.2,1.6,0.5
		c0.3,0.3,0.5,0.8,0.5,1.5c0,2.2-0.3,4.5-0.8,6.9c-0.5,2.4-1.2,4.9-1.9,7.4c-0.8,2.7-1.4,5.4-2,8.2c-0.6,2.7-0.9,5.4-0.9,8.1
		c0,1.6,0.4,2.9,1.2,3.8c0.8,0.9,1.9,1.3,3.2,1.3c0.5,0,1.1-0.1,1.9-0.3c0.8-0.2,1.5-0.4,2.2-0.8c0.9-4,2.3-8.5,4.1-13.3
		c1.8-4.8,3.6-9,5.4-12.6c1.8-3.6,2.9-5.4,3.5-5.4c-1.5,4.5-2.8,9.2-3.8,14.2c-1.1,5-1.6,9.3-1.6,13.1c0,0.7,0.1,1.4,0.3,2.2
		c0.2,0.8,0.7,1.5,1.3,2c0.6,0.6,1.5,0.8,2.7,0.8c1.1,0,2.2-0.5,3.3-1.5c1.1-1,2.2-2.3,3.3-3.8c1-1.5,2-3.1,2.8-4.7
		c0.8-1.5,1.4-2.9,1.9-4.1c-0.2,0.7-0.3,1.3-0.5,2c-0.5,2.4-0.8,4.4-0.8,6.1c0,0.7,0.1,1.4,0.3,2.2c0.2,0.8,0.7,1.5,1.3,2
		c0.6,0.6,1.6,0.9,2.8,0.9c1.2,0,2.4-0.5,3.5-1.5c1.1-1,2.1-2.3,3-3.8c0.5-0.8,0.9-1.6,1.3-2.4c-0.1,1-0.1,1.9-0.1,2.7
		c0,1.7,0.4,3,1.2,3.9c0.8,0.8,1.9,1.2,3.3,1.2c1,0,2.2-0.3,3.5-0.9c0.9-3.2,1.8-6,2.8-8.3c0.4,1.2,0.9,2.5,1.5,3.9
		c0.6,1.4,1.4,2.6,2.3,3.6c0.9,1,1.9,1.5,3,1.6c2.5-0.1,4.6-2.3,6.5-6.5c0,0.5,0,1,0,1.4c0,0.6,0.1,1.2,0.2,1.8
		c0.1,0.7,0.4,1.3,0.8,1.8c0.3,0.4,0.8,0.8,1.3,1.1c0.6,0.3,1.3,0.4,2.1,0.4c0.5,0,1-0.1,1.7-0.2c0.6-0.1,1.3-0.4,1.9-0.7
		c0.6-2.5,1.6-5.4,3-8.9c0.9-2.3,1.8-4.3,2.8-6.1c0.9-1.7,1.8-2.9,2.6-3.5c-1,2.5-1.9,5.2-2.5,8.2c-0.5,2.2-0.7,4.2-0.7,6.1
		c0,0.6,0.1,1.3,0.3,2c0.2,0.7,0.5,1.4,1,1.9c0.3,0.3,0.8,0.6,1.3,0.9c0.5,0.2,1.1,0.3,1.8,0.3c0.9,0,1.8-0.3,2.6-0.8
		c0.8-0.6,1.6-1.3,2.4-2.2c0.7-0.9,1.4-2,2-3.1c0.2-0.4,0.4-0.8,0.6-1.1c-0.8,4.5-1.2,8.6-1.2,12.4c0,3.5,0.6,6.5,1.9,8.9
		c1.9,2.9,4.5,5,7.9,6.2c2.4,0.9,4.9,1.3,7.4,1.3c1,0,2-0.1,3.1-0.2c3.6-0.5,6.6-1.8,9.1-3.9s3.8-5.1,3.9-8.8c0-1.8-0.4-3.2-1.1-4.4
		C139.4,84.2,138.4,83.3,137.3,82.7z"/>
	<path class="st3" d="M58.1,52.2c0.2,0,0.4,0,0.6,0c0.9,0,1.7-0.3,2.4-0.8c0.8-0.7,1.3-1.6,1.5-2.8c0-0.2,0-0.4,0-0.6
		c0-0.9-0.3-1.7-0.8-2.5c-0.6-0.9-1.5-1.4-2.6-1.6c-0.2,0-0.3,0-0.5,0c-0.9,0-1.7,0.3-2.4,0.9c-0.8,0.7-1.3,1.6-1.5,2.8
		c0,0.2,0,0.4,0,0.6c0,0.9,0.3,1.8,0.8,2.5C56.2,51.5,57,52,58.1,52.2z"/>
	<path class="st3" d="M169.5,38.9"/>
	<path class="st3" d="M179.6,25.7c-0.4-2.1-1.3-4.1-2.7-5.8c-1.4-1.8-3.3-3.2-5.7-4.3c-2.4-1.1-5.3-1.7-8.7-1.7
		c-5.5,0-10.2,1.1-14.3,3.4c-4.1,2.3-7.7,5.6-10.7,10c-1.7-1.6-3.4-3.2-5.1-4.8c-2.6-2.5-5.3-5-8-7.5c-2.7-2.4-5.5-4.6-8.4-6.6
		c-2.9-2-5.9-3.5-9-4.7c-3.1-1.2-6.4-1.8-9.9-1.8c-4.3,0-7.9,0.6-11,1.9c-3.1,1.2-5.5,2.9-7.4,4.9c-1.9,2-3.2,4.3-3.9,6.7
		c-0.5,1.8-0.8,3.5-0.8,5.2c0,0.7,0,1.4,0.1,2.1c0.3,2.4,1.1,4.6,2.4,6.7c1.3,2,3.1,3.7,5.4,4.9c2.3,1.3,5,1.9,8.2,1.9
		c2.4,0,4.7-0.5,6.8-1.5c2.1-1,3.9-2.4,5.2-4.3c1.3-1.8,2-4.1,2-6.7c0-1.2-0.3-2.3-0.9-3.3c-0.6-1-1.5-1.5-2.7-1.5
		c0.4,1.2,0.7,2.4,0.7,3.6c0,0.4,0,0.8-0.1,1.2c-0.4,2.5-1.4,4.6-3.1,6.3c-1.7,1.7-3.8,2.5-6.4,2.5c-2.3,0-4.3-0.5-5.9-1.5
		c-1.6-1-2.9-2.3-3.8-3.9c-0.9-1.6-1.4-3.4-1.6-5.3c0-0.4-0.1-0.8-0.1-1.2c0-1.5,0.2-3.1,0.7-4.6c0.6-1.9,1.6-3.7,3-5.4
		c1.4-1.6,3.2-3,5.4-4c2.2-1,4.8-1.5,7.8-1.5c3.2,0,6.2,0.6,9.1,1.7c2.9,1.1,5.7,2.6,8.3,4.4c2.7,1.9,5.3,3.9,7.8,6.2
		c2.5,2.3,5.1,4.7,7.6,7.1c1.9,1.9,3.8,3.7,5.7,5.4c-2.5,4.4-4.7,9.2-6.6,14.5c-1.7,4.7-3,8.6-3.9,11.8c-0.9,3.1-1.7,6.2-2.5,9.1
		c-1.2,4.8-1.7,8.3-1.7,10.5c0,1.3,0.3,2.4,0.9,3.4c0.7,1.2,1.9,1.7,3.5,1.7c1.1,0,2.1-0.5,3.2-1.6c1.1-1,2-2.3,2.9-3.8
		c0.9-1.5,1.7-3.1,2.4-4.7c0.7-1.6,1.2-3.1,1.6-4.3c0.4-1.3,0.6-2.1,0.6-2.4c-0.3,0.7-0.7,1.7-1.3,3c-0.6,1.3-1.3,2.6-2,4
		c-0.8,1.4-1.5,2.5-2.2,3.5c-0.7,1-1.3,1.5-1.8,1.5c-0.4,0-0.7-0.4-0.7-1.3c0-2,0.6-5.3,1.8-10.1c0.6-2.6,1.4-5.3,2.2-8.1
		c0.8-2.8,1.4-5,1.9-6.4c0.3-0.9,0.6-1.8,0.9-2.6c1.4-4.7,3.1-9.1,5.4-13.4c2.2,1.9,4.5,3.5,6.8,5c2.3,1.4,4.8,2.6,7.2,3.4
		c2.5,0.8,5.1,1.3,7.8,1.3c2.6,0,4.8-0.3,6.9-1c0,0,0,0,0,0c-0.6-1.1-1.3-2.1-2.3-2.9c0,0,0,0,0,0c-1.3,0.4-2.8,0.6-4.5,0.6
		c-2.4,0-4.7-0.4-7-1.2c-2.3-0.8-4.5-1.9-6.7-3.3c-2.2-1.4-4.3-3-6.5-4.8c1.5-2.5,3.3-4.7,5.3-6.7c2-2,4.3-3.6,6.8-4.8
		c2.5-1.2,5.3-1.8,8.4-1.8c2.8,0,5.2,0.5,7.1,1.6c1.9,1.1,3.3,2.5,4.2,4.2c0.9,1.7,1.4,3.5,1.4,5.4s-0.5,3.7-1.5,5.4
		c-0.5,1-1.3,1.8-2.1,2.6c0,0,0,0,0,0c0.9,0.5,1.9,1.3,2.9,2.5c-0.5,0.4,0.9-0.7,1.8-1.8c1.5-1.8,2.5-3.7,3-5.9
		c0.3-1.2,0.5-2.4,0.5-3.6C179.9,27.5,179.8,26.6,179.6,25.7z"/>
</g>
</svg>
