<?xml version="1.0" encoding="utf-8"?>
<!-- Generator: Adobe Illustrator 26.0.2, SVG Export Plug-In . SVG Version: 6.00 Build 0)  -->
<svg version="1.1" id="Name" xmlns="http://www.w3.org/2000/svg" xmlns:xlink="http://www.w3.org/1999/xlink" x="0px" y="0px"
	 viewBox="0 0 203.6 44.7" style="fill:#fff;enable-background:new 0 0 203.6 44.7;" xml:space="preserve">
<g>
	<path d="M28,35.4c-2-1-3.1-3.6-3.7-6.8l0.2-0.8c4.1-14.8,7.7-19.6,10-23.8c0.8-1.4-5.6-2-5.7-1.8c-1.1,4.6-1.4,8.4-5.1,21.7
		c-0.1-1.7-0.2-3.5-0.3-5.2C23.2,14,23,9.4,23.1,4c0-0.6-0.6-0.9-1.3-1c-1.7-0.6-4.5-0.8-4.5-0.8c-0.8,3.8-1.8,8.6-5.8,23.2
		c-1.6,5.9-2,6.7,0.5,6.3c0,0-0.1-0.4,1.2-5.5c1.6-6,3.2-10.4,4.6-13.6l0.7,6.9c1,9.3,2.1,16.9,6.1,18.8c6.8,3.4,20.3-9.3,32,3.7
		c1.7,1.8,3.5-4.1,3.2-4.3C48.5,27.4,34.5,38.6,28,35.4z"/>
	<path d="M42.3,24.2C42.3,24.2,42.3,24.2,42.3,24.2C42.3,24.2,42.3,24.2,42.3,24.2z"/>
	<path d="M72.3,14.4c1.5,0.4,3.8-0.2,4.2-1.4c0.5-1.3-1.1-2.6-2.3-2.9c-1.8-0.4-3.8,0.3-4.2,1.4C69.6,12.7,71,14,72.3,14.4z"/>
	<path d="M191.1,10.1c-1.8-0.4-3.8,0.3-4.2,1.4c-0.5,1.2,0.9,2.5,2.3,2.9c1.5,0.4,3.8-0.2,4.2-1.4C193.8,11.8,192.3,10.4,191.1,10.1
		z"/>
	<path d="M31.4,11.8c-0.5,1.2,0.9,2.5,2.3,2.9c1.5,0.4,3.8-0.2,4.2-1.4c0.5-1.3-1.1-2.6-2.3-2.9C33.9,10,31.9,10.7,31.4,11.8z"/>
	<path d="M80.7,2.5c-0.8,3.8-1.4,5.6-2.8,10c-1.3,4.1-2.7,9.5-3.3,12.2c-0.1,0.5-0.2,1-0.3,1.5c-0.6,1-1.2,1.6-1.7,2
		c-0.7,0.4-0.9,0.4-0.7-1c0.8-4.7,2.9-9.6,3.1-9.9c0.3-1-4.1-1.8-5.1-1.7c0,0-0.1,0.1-0.2,0.6c-0.4,1.4-1.2,3.9-2,6.8
		c-0.4,1.3-0.6,2.4-0.8,3.4c-0.6,1-1.2,1.8-1.7,2.2c-1.1,0.9-0.9-0.4,0.8-5.9c2.2-6.7,1.1-9.5-1.9-9.5c-2.1,0-4.2,3-6,7.1
		c0.5-1.9,1.1-4.1,1.9-6.4c1.7-5.1,3.8-9.2,4-9.8c0.5-1.5-5.7-2-5.7-1.8c-0.9,3.8-5.4,18.4-6.4,22.6c-0.1,0.3-0.1,0.6-0.2,0.9
		c-0.5,0.9-0.9,1.4-1.5,1.9c-0.7,0.4-0.8,0.4-2.7-3.6c-0.1-0.1-0.1-0.2,0-0.2c7.5-4.1,6.4-10.8,2.6-10.8c-3.1,0-5.2,2.3-7.3,7.3
		c0.6-2,1.3-4.2,2-6.5c1.7-5.1,3.4-9.2,3.6-9.8c0.5-1.5-5.6-2-5.7-1.8c-0.9,3.8-5.4,18.4-6.4,22.6c0,0.2-0.1,0.4-0.1,0.5
		c-0.8,1.4-1.5,2.2-2.1,2.7c-0.7,0.4-0.9,0.4-0.7-1c0.8-4.7,2.9-9.6,3.1-9.9c0.3-1-4.1-1.8-5.1-1.7c0,0-0.1,0.1-0.2,0.6
		c-0.4,1.4-1.2,3.9-2,6.8c-1.6,5.3-1.1,8.4,1.2,8.8c1.2,0.2,2.3-0.6,3.7-2c0.7-0.7,1.4-1.7,2-2.7c-0.4,4.1,1.8,5.1,4,4.8
		c0,0,0.1-0.2,0.5-2.1c2.9-9.3,5.3-14.3,7.1-14.3c1.3,0,1.5,3.2-2.7,6.8c-2.1,1.9-2.3,2-2.3,1.9c2.4,5.2,2.7,7,3.8,7.5
		c0.9,0.4,2-0.4,3.4-1.8c0.6-0.7,1.3-1.6,1.9-2.5c-0.3,3.9,1.9,4.9,4,4.6c0,0,0.1-0.2,0.5-2.3c2.8-9.2,4.5-13.4,6.3-13.4
		c0.9,0-0.1,1.4-1.7,6.5c-1.7,5.4,0.1,8.4,1.3,8.8c0.9,0.4,2-0.2,3.3-1.7c0.5-0.6,1.1-1.3,1.6-2.1c-0.1,2.4,0.6,3.9,2,4.2
		c1.2,0.2,2.3-0.6,3.7-2c0.6-0.6,1.2-1.4,1.7-2.3c0,2.2,0.6,3.8,1.6,4.2c0.8,0.3,2.3-0.4,3.7-1.9c1.2-1.3,2.3-3.2,3.4-5.1
		c0.4-0.8,0.5-1.3,0.5-1.5c0-0.6-0.2-0.5-0.9,0.7c-1.2,2.3-2,3.5-2.7,4.1c-0.8,0.5-1.1,0.4-0.9-0.9c0.4-2.4,2.2-8.1,3.9-13.3
		c1.7-5.1,3.5-9.6,3.6-9.8C87.1,2.5,80.7,2.4,80.7,2.5z"/>
	<path d="M142,32.6c-5.5,3.6-13.7,6.8-19.3,4.7c-4.8-1.8-5.7-6.8-7.8-12.1c-1.5-3.7-3-5.2-4.6-5.9c5.1-1.7,10.4-5.2,11.7-9.3
		c1.9-5.7-3.9-7.8-9.5-7.8c-7.8,0-18,3.7-21.6,10.6c-3.4,6.8,2.4,13.3,7,13.3c0.4,0,2.6-4.5,2.2-4.4c-7.5,2.5-8-3.1-4.7-9.6
		c2.8-5.5,10-8.6,16.4-8.6c4.1,0,6.3,1.3,4.7,6.4c-1.2,3.7-3.9,7.2-7.5,8.4l0.7-2c1.7-5.1,3.5-9.7,3.7-10.2c0.5-1.5-5.6-2-5.7-1.8
		c-3.7,13.6-4.7,16.9-5.9,21.1c-1.6,5.9,1.3,6.7,3.8,6.3c0,0-0.1-0.4,1.3-5.5c1-3.7,1-4.1,1.3-5.1c0.4,1,0.7,2.4,1.2,3.9
		c1.8,5.6,5.9,11.5,12.4,13.8c6.7,2.4,16.4,2.9,23.6-0.9C147.5,36.8,142.2,32.4,142,32.6z"/>
	<path d="M180.1,15.7c-0.3-0.6-0.8-1.4-1.4-2c-1.6-1.7-7.3,1.3-9.6,8.7c-0.1,0.4-0.2,0.8-0.3,1.1c-0.4,0.2-0.7,0.4-1.1,0.6
		c0.2-0.4,0.4-0.9,0.5-1.4c1.4-4.4-0.8-7.7-3.5-8c-0.2-0.4-0.5-0.7-0.8-1c-1.5-1.7-8.4,1.3-10.7,8.7c-0.4,1.3-0.5,2.7-0.3,3.9
		c-0.6,1-1.2,1.7-1.6,2c-1,1-1.9,1.7-1.5-1c0.4-2.3,1.8-7,3.5-12.1c2.2-0.3,3.3-1,4.2-2c0.1-0.2,0.1-0.3,0-0.3h-3.5
		c1.4-3.9,2.6-6.5,2.6-6.7c0.7-1.7-5.7-1.8-5.7-1.7c-0.7,2.9-1.4,5.8-2.2,8.4h-1c-1.1,0.1-1.8,1.7-1.3,2.6c0.5,0,1,0,1.5,0
		c-1.2,4.3-2.3,7.7-2.7,9.2c0,0.1,0,0.2-0.1,0.3c-0.3,0.2-0.7,0.4-1,0.5c0.1-0.5,0.2-1,0.2-1.5c0-2.3-2.5-5.4-4.6-7.7
		c0.9-1.7,1.4-3.5,1.3-5.2c0-0.1-7,0.2-6.6,2c0.1,0.8,1.3,2.5,2.3,4.8c-0.5,1.9-1.3,3.9-2.4,6c0,0,0,0.1-0.1,0.1
		c-1.2,2.3-2.6,4.6-3.4,5.3c-1.1,0.9-0.9,0.6-0.5-2.1c0.8-4.7,3.3-9.6,3.4-9.9c0.3-0.8-2.7-1.5-4.3-1.7c-0.3-0.6-0.8-1.4-1.4-2
		c-1.5-1.7-7.4,1.5-9.6,8.7c-1.5,4.8,1,9.5,3.9,9.5c2.7,0,3.5-4.6,4.3-7.1c0-0.1,0.1-0.2,0,0c-0.8,3.1-0.1,6.3,1.1,6.8
		c0.9,0.4,2-0.2,3.3-1.7c1.2-1.3,2.3-3.2,3.4-5.1c0.1-0.1,0.1-0.2,0.1-0.3c0-0.1,0.1-0.1,0.1-0.2c0.7-1.3,1.7-2.8,2.8-4.4
		c0.7,2,1.1,4.2,0.7,6.5c-3.4,0.9-5.9,4.2-4.5,5.6c1.4,1.4,8.3-0.8,10.1-5.7c0.4-0.1,0.8-0.3,1.1-0.4c-0.4,2.9,0.1,5.4,1.3,5.8
		c1.1,0.5,3.3-0.4,5.3-2.8c0.5-0.7,0.9-1.3,1.3-1.9c0.7,2.7,2.6,4.6,4.6,4.6c2.7,0,7.2-2.1,9.6-6.8c0.5-0.2,1-0.4,1.4-0.6
		c-0.6,4,0.9,7.4,4.2,7.4c2.7,0,4-4.6,4.9-7.1c0,0,0.2,1.5-2,6.5c-2.5,5.5-3.9,8.2-5.5,7.3c-0.7-0.3,3.2-4.3,3.3-4.6
		c0.3-1.1-4-1.8-5-1.7l0,0c-1.3,3.2,0,6.2,1.4,7.6c1.9,1.9,6.7-0.8,9.5-8.7c3.3-9.3,4.9-13.5,5-13.8
		C184.6,16.5,181.7,15.8,180.1,15.7z M128.5,16.3c-0.4,1.4-1.2,3.9-2,6.8c-1.4,4.7-1.6,6.5-2.8,6.5c-1.3,0-0.8-3.1,0.5-7.3
		c1.2-4.2,2.3-8.1,3.8-7.3c0.3,0.1,0.5,0.4,0.8,0.7C128.6,15.8,128.6,16,128.5,16.3z M138.2,27.3c-1,3.6-1.1,3.7-1.9,2.9
		c-0.6-0.7-0.1-2.5,2-3.1C138.3,27.2,138.2,27.3,138.2,27.3z M158.3,30.7c-1.5,0-0.8-4.2,0.5-8.4c1.3-4.7,3-8.3,4.8-7.5
		c-2.8,1-4.1,7.9-1.5,10.1C161,28.1,159.8,30.7,158.3,30.7z M162.7,22.7l-0.2,0.7c-1.4-2.3,0-7.6,1-7.6
		C164.7,15.8,163.8,18.5,162.7,22.7z M179,16.3c-0.4,1.4-1.1,3.9-2,6.8c-1.4,4.7-1.8,6.5-3,6.5c-1,0-0.6-3.1,0.6-7.3
		c1.2-4.2,2.3-8.1,3.8-7.3c0.3,0.1,0.5,0.4,0.8,0.8L179,16.3z"/>
	<path d="M191.7,24c-1.2,2.3-2.1,3.5-2.9,4.2c-0.7,0.4-0.9,0.4-0.7-1c0.8-4.7,2.9-9.6,3.1-9.9c0.3-1-4.1-1.8-5.1-1.7
		c0,0-0.1,0.1-0.2,0.6c-0.4,1.4-1.2,3.9-2,6.8c-1.6,5.3-1.1,8.4,1.1,8.8c1.2,0.2,2.3-0.6,3.7-2c1.2-1.3,2.3-3.2,3.4-5.1
		c0.4-0.8,0.5-1.3,0.5-1.5C192.6,22.7,192.4,22.8,191.7,24z"/>
</g>
</svg>
