<?xml version="1.0" encoding="utf-8"?>
<!-- Generator: Adobe Illustrator 26.0.2, SVG Export Plug-In . SVG Version: 6.00 Build 0)  -->
<svg version="1.1" id="Layer_1" xmlns="http://www.w3.org/2000/svg" xmlns:xlink="http://www.w3.org/1999/xlink" x="0px" y="0px"
	 viewBox="0 0 50.1 50.1" style="enable-background:new 0 0 50.1 50.1;" xml:space="preserve">
<style type="text/css">
	.st0{fill:#822296;}
	.st1{fill:#F9FCFF;}
</style>
<circle class="st0" cx="25" cy="25" r="23.1"/>
<path class="st1" d="M18,14.7c0.7,0,1.4,0,2,0c0.8,0,1.2,0.5,1.2,1.2c0,1.8,0.4,3.6,1.2,5.3c0.4,0.8,0.2,1.4-0.7,1.8
	c-0.5,0.2-0.8,0.5-1.3,0.6c-0.2,0.1-0.2,0.2-0.1,0.3c1.4,2.3,3.3,4.2,5.5,5.5c0.2,0.2,0.2,0.1,0.3-0.1c0.2-0.5,0.5-0.9,0.7-1.4
	c0.4-0.7,0.9-0.9,1.7-0.6c1.2,0.5,2.5,1,3.9,1.1c0.5,0.1,1.1,0.1,1.5,0.1c0.8,0,1.2,0.5,1.2,1.2c0,1.3,0,2.7,0,3.9
	c0,0.8-0.5,1.3-1.3,1.2c-4.7-0.1-8.8-1.6-12.4-4.6c-3.3-2.9-5.5-6.5-6.4-10.8c-0.2-1.2-0.4-2.4-0.4-3.7c0-0.8,0.5-1.3,1.3-1.3
	C16.7,14.7,17.4,14.7,18,14.7z"/>
</svg>
