<?xml version="1.0" encoding="utf-8"?>
<!-- Generator: Adobe Illustrator 26.0.2, SVG Export Plug-In . SVG Version: 6.00 Build 0)  -->
<svg version="1.1" id="Layer_1" xmlns="http://www.w3.org/2000/svg" xmlns:xlink="http://www.w3.org/1999/xlink" x="0px" y="0px"
	 viewBox="0 0 24 24" style="enable-background:new 0 0 24 24;" xml:space="preserve">
<style type="text/css">
	.st0{fill:#FFFFFF;}
</style>
<g>
	<path class="st0" d="M23.4,9.5c-0.1-0.2-0.4-0.3-0.7-0.3h-0.9c-0.2-0.7-0.5-1.3-0.8-2l0.6-0.6c0.4-0.4,0.4-1,0-1.3
		c-0.7-0.8-1.6-1.8-2.6-2.7c-0.4-0.4-1-0.4-1.3,0l-0.7,0.7h0c-0.6-0.4-1.3-0.6-1.9-0.8c0,0,0,0,0,0l0-1c-0.1-0.6-0.5-0.9-1-0.9h-3.7
		c-0.6,0-1,0.4-1,0.9v0.9c0,0,0,0,0,0C9,2.4,8.8,2.5,8.6,2.6C8.4,2.6,8.2,2.7,8,2.8C7.8,2.8,7.7,2.9,7.6,3C7.5,3.1,7.3,3.1,7.3,3.1
		l-0.1,0c0,0-0.2,0-0.5-0.6c-0.4-0.4-1-0.4-1.3,0C4.3,3.4,3.4,4.3,2.6,5.2c-0.4,0.4-0.4,1,0,1.3l0.6,0.6l0,0
		C2.9,7.8,2.6,8.4,2.4,9.2H1.5c-0.6,0-1,0.3-1,0.9v3.6c0,0.7,0.3,1,1,1l0.9,0c0.2,0.7,0.5,1.4,0.9,2c0,0,0,0,0,0l-0.6,0.6
		c-0.2,0.2-0.3,0.4-0.3,0.7c0,0.2,0.1,0.5,0.3,0.6c0.7,1,1.6,1.9,2.5,2.7c0.4,0.4,0.9,0.4,1.3,0l0.6-0.6l0,0c0.6,0.3,1.3,0.6,2,0.7
		c0,0,0,0,0,0v0.9c0,0.5,0.4,0.9,1,0.9h3.7c0.6,0,0.9-0.4,0.9-0.9l0-0.9c0,0,0,0,0,0c0.6-0.2,1.3-0.5,1.9-0.8c0,0,0,0,0,0l0.7,0.7
		c0.4,0.4,0.9,0.4,1.3,0c0.6-0.6,1.2-1.2,1.8-1.8c0.3-0.3,0.6-0.6,0.8-0.8c0.2-0.2,0.3-0.4,0.3-0.7c0-0.2-0.1-0.5-0.3-0.7l-0.6-0.6
		c0.4-0.7,0.7-1.3,0.8-2h0.9c0.5,0,0.9-0.4,0.9-0.9v-3.8C23.5,9.9,23.5,9.6,23.4,9.5z M20.2,13.8c-0.2,0.9-0.7,1.8-1.1,2.6
		c-0.3,0.4-0.2,0.8,0.1,1.2l0.5,0.5l-1.4,1.5l-0.5-0.5c-0.4-0.4-0.8-0.4-1.2-0.1c-0.8,0.5-1.7,0.9-2.6,1.1c-0.5,0.1-0.8,0.4-0.8,0.9
		v0.7h-2v-0.6c0-0.5-0.3-0.8-0.8-0.9C9.5,20,8.8,19.6,8,19.2L7.7,19c-0.5-0.3-1,0-1.1,0.1c-0.2,0.1-0.4,0.3-0.6,0.5l-1.5-1.5L5,17.6
		c0.4-0.4,0.4-0.8,0.1-1.2c-0.5-0.8-0.9-1.7-1.1-2.6C4,13.3,3.6,13,3.2,13H2.4v-2h0.7c0.5,0,0.8-0.3,0.9-0.8
		c0.2-0.9,0.7-1.8,1.1-2.6C5.4,7.2,5.4,6.7,5,6.3C4.8,6.2,4.6,6,4.4,5.9c0.2-0.2,0.3-0.3,0.5-0.5c0.3-0.3,0.6-0.7,1-1l0.5,0.5
		c0.4,0.4,0.8,0.4,1.2,0.1C8.4,4.5,9.3,4.2,10.2,4C10.7,3.8,11,3.5,11,3V2.4h2V3c0,0.5,0.3,0.8,0.8,0.9c0.9,0.2,1.8,0.6,2.6,1.1
		c0.3,0.2,0.8,0.3,1.3-0.1l0.1-0.1c0.1-0.1,0.2-0.3,0.4-0.5l1.5,1.4l-0.5,0.5c-0.4,0.4-0.4,0.8-0.1,1.2c0.5,0.8,0.9,1.7,1.1,2.7
		c0.1,0.4,0.5,0.7,0.9,0.7h0.7l0,0.1c0.1,0.2,0.1,0.6,0.1,0.9v1h-0.6C20.7,13,20.4,13.3,20.2,13.8z"/>
</g>
<g>
	<path class="st0" d="M12,6.6c-1.4,0-2.9,0.6-3.9,1.7c-1,1-1.5,2.3-1.5,3.7c0,3,2.4,5.4,5.3,5.4c3,0,5.4-2.4,5.4-5.3
		C17.4,9,15,6.6,12,6.6z M12,15.4c-1,0-1.9-0.4-2.6-1.1c-0.6-0.7-1-1.5-0.9-2.4c0-2,1.6-3.5,3.5-3.5c2,0,3.5,1.6,3.5,3.5
		c0,0.9-0.3,1.7-0.9,2.4C13.9,15,13,15.4,12,15.4z"/>
</g>
</svg>
