<?xml version="1.0" encoding="utf-8"?>
<!-- Generator: Adobe Illustrator 26.0.2, SVG Export Plug-In . SVG Version: 6.00 Build 0)  -->
<svg version="1.1" id="Layer_1" xmlns="http://www.w3.org/2000/svg" xmlns:xlink="http://www.w3.org/1999/xlink" x="0px" y="0px"
	 viewBox="0 0 50.1 50.1" style="enable-background:new 0 0 50.1 50.1;" xml:space="preserve">
<style type="text/css">
	.st0{fill:#03AC4B;}
	.st1{fill:#FEFEFE;}
</style>
<g>
	<circle class="st0" cx="25.1" cy="25.1" r="23.1"/>
	<g>
		<path class="st1" d="M11.1,39.1c0.6-2.3,1.2-4.5,1.9-6.8c0.1-0.3,0.1-0.5-0.1-0.8c-4.5-8.3,0.6-18.7,9.9-20.3
			c7.5-1.3,14.5,3.6,16,11c1.6,7.9-3.9,15.5-11.9,16.5c-2.8,0.4-5.5-0.1-8.1-1.4c-0.3-0.1-0.5-0.2-0.8-0.1c-2.2,0.6-4.4,1.2-6.6,1.7
			C11.4,39,11.3,39.1,11.1,39.1z"/>
		<path class="st0" d="M14.4,35.8c0.4-1.3,0.7-2.6,1-3.8c0.1-0.3,0.1-0.6-0.1-0.8c-3.7-5.9-1.5-13.5,4.7-16.6
			c6.9-3.4,15.3,1,16.5,8.6c0.9,6.2-3,11.9-9.1,13.1c-2.9,0.6-5.7,0.1-8.2-1.4c-0.2-0.1-0.4-0.2-0.7-0.1
			C17.1,35.1,15.8,35.4,14.4,35.8z"/>
		<path class="st1" d="M28.7,31.6c-1.2,0-2.3-0.5-3.4-1c-2.3-1-4-2.8-5.5-4.8c-0.7-1-1.4-2-1.6-3.2c-0.3-1.5,0.1-2.8,1.2-3.8
			c0.5-0.5,1.2-0.4,1.8-0.3c0.2,0,0.3,0.3,0.4,0.5c0.4,0.9,0.7,1.8,1.1,2.7c0.1,0.3,0.1,0.5-0.1,0.7c-0.3,0.4-0.6,0.8-0.8,1.1
			c-0.2,0.2-0.2,0.4,0,0.7c1.1,1.9,2.7,3.3,4.8,4.1c0.3,0.1,0.5,0.1,0.7-0.2c0.3-0.4,0.7-0.8,1-1.2c0.2-0.3,0.5-0.4,0.9-0.2
			c0.9,0.4,1.8,0.9,2.8,1.3c0.2,0.1,0.3,0.3,0.3,0.6c-0.1,1.5-0.6,2.2-2.3,2.9C29.5,31.6,29.1,31.6,28.7,31.6z"/>
	</g>
</g>
</svg>
