<?xml version="1.0" encoding="utf-8"?>
<!-- Generator: Adobe Illustrator 27.3.1, SVG Export Plug-In . SVG Version: 6.00 Build 0)  -->
<svg version="1.1" id="Layer_1" xmlns="http://www.w3.org/2000/svg" xmlns:xlink="http://www.w3.org/1999/xlink" x="0px" y="0px"
	 viewBox="0 0 32 32" style="enable-background:new 0 0 32 32;" xml:space="preserve">
<style type="text/css">
	.st0{fill:#010101;}
	.st1{fill:#FFFFFF;}
</style>
<circle class="st0" cx="16" cy="16" r="16"/>
<path class="st1" d="M20.3,22.6L9.4,11.7c-0.6-0.6-0.6-1.7,0-2.3s1.7-0.6,2.3,0l10.8,10.8c0.6,0.6,0.6,1.7,0,2.3
	C21.9,23.2,20.9,23.2,20.3,22.6z"/>
<path class="st1" d="M20.3,22.6L9.4,11.7c-0.6-0.6-0.6-1.7,0-2.3s1.7-0.6,2.3,0l10.8,10.8c0.6,0.6,0.6,1.7,0,2.3
	C21.9,23.2,20.9,23.2,20.3,22.6z"/>
<path class="st1" d="M22.6,11.7L11.7,22.6c-0.6,0.6-1.7,0.6-2.3,0c-0.6-0.6-0.6-1.7,0-2.3L20.3,9.4c0.6-0.6,1.7-0.6,2.3,0
	C23.2,10.1,23.2,11.1,22.6,11.7z"/>
</svg>
