<?xml version="1.0" encoding="utf-8"?>
<!-- Generator: Adobe Illustrator 27.3.1, SVG Export Plug-In . SVG Version: 6.00 Build 0)  -->
<svg version="1.1" id="Layer_1" xmlns="http://www.w3.org/2000/svg" xmlns:xlink="http://www.w3.org/1999/xlink" x="0px" y="0px"
	 viewBox="0 0 32 32" style="enable-background:new 0 0 32 32;" xml:space="preserve">
<style type="text/css">
	.st0{fill:#FFFFFF;}
	.st1{fill-rule:evenodd;clip-rule:evenodd;fill:#FFFFFF;}
	.st2{fill:none;stroke:#FFFFFF;stroke-width:2.4121;stroke-linecap:round;stroke-linejoin:round;stroke-miterlimit:133.3333;}
</style>
<circle cx="100.3" cy="67.8" r="16"/>
<path class="st0" d="M107.1,60.3c-0.7-0.7-1.8-0.7-2.5,0l-1,1l3.1,3.1l1-1c0.7-0.7,0.7-1.8,0-2.5L107.1,60.3z M97.6,67.3
	c-0.2,0.2-0.3,0.4-0.4,0.7l-0.9,2.8c-0.1,0.3,0,0.6,0.2,0.8c0.2,0.2,0.5,0.3,0.8,0.2l2.8-0.9c0.3-0.1,0.5-0.2,0.7-0.4l5.3-5.3
	l-3.1-3.1L97.6,67.3z M95.2,61.7c-1.7,0-3,1.4-3,3v8.1c0,1.7,1.4,3,3,3h8.1c1.7,0,3-1.4,3-3v-3c0-0.6-0.5-1-1-1c-0.6,0-1,0.5-1,1v3
	c0,0.6-0.5,1-1,1h-8.1c-0.6,0-1-0.5-1-1v-8.1c0-0.6,0.5-1,1-1h3c0.6,0,1-0.5,1-1c0-0.6-0.5-1-1-1H95.2z"/>
<circle cx="58.7" cy="67.8" r="16"/>
<path class="st0" d="M65.6,60.3c-0.7-0.7-1.8-0.7-2.5,0l-1,1l3.1,3.1l1-1c0.7-0.7,0.7-1.8,0-2.5L65.6,60.3z M56.1,67.3
	c-0.2,0.2-0.3,0.4-0.4,0.7l-0.9,2.8c-0.1,0.3,0,0.6,0.2,0.8c0.2,0.2,0.5,0.3,0.8,0.2l2.8-0.9c0.3-0.1,0.5-0.2,0.7-0.4l5.3-5.3
	L61.4,62L56.1,67.3z M53.7,61.7c-1.7,0-3,1.4-3,3v8.1c0,1.7,1.4,3,3,3h8.1c1.7,0,3-1.4,3-3v-3c0-0.6-0.5-1-1-1c-0.6,0-1,0.5-1,1v3
	c0,0.6-0.5,1-1,1h-8.1c-0.6,0-1-0.5-1-1v-8.1c0-0.6,0.5-1,1-1h3c0.6,0,1-0.5,1-1c0-0.6-0.5-1-1-1H53.7z"/>
<circle cx="16" cy="67.8" r="16"/>
<path class="st0" d="M22.9,60.3c-0.7-0.7-1.8-0.7-2.5,0l-1,1l3.1,3.1l1-1c0.7-0.7,0.7-1.8,0-2.5L22.9,60.3z M13.4,67.3
	c-0.2,0.2-0.3,0.4-0.4,0.7L12,70.8c-0.1,0.3,0,0.6,0.2,0.8c0.2,0.2,0.5,0.3,0.8,0.2l2.8-0.9c0.3-0.1,0.5-0.2,0.7-0.4l5.3-5.3
	L18.7,62L13.4,67.3z M10.9,61.7c-1.7,0-3,1.4-3,3v8.1c0,1.7,1.4,3,3,3h8.1c1.7,0,3-1.4,3-3v-3c0-0.6-0.5-1-1-1s-1,0.5-1,1v3
	c0,0.6-0.5,1-1,1h-8.1c-0.6,0-1-0.5-1-1v-8.1c0-0.6,0.5-1,1-1h3c0.6,0,1-0.5,1-1c0-0.6-0.5-1-1-1H10.9z"/>
<circle cx="-25.4" cy="67.8" r="16"/>
<path class="st0" d="M-18.6,60.3c-0.7-0.7-1.8-0.7-2.5,0l-1,1l3.1,3.1l1-1c0.7-0.7,0.7-1.8,0-2.5L-18.6,60.3z M-28,67.3
	c-0.2,0.2-0.3,0.4-0.4,0.7l-0.9,2.8c-0.1,0.3,0,0.6,0.2,0.8c0.2,0.2,0.5,0.3,0.8,0.2l2.8-0.9c0.3-0.1,0.5-0.2,0.7-0.4l5.3-5.3
	l-3.1-3.1L-28,67.3z M-30.5,61.7c-1.7,0-3,1.4-3,3v8.1c0,1.7,1.4,3,3,3h8.1c1.7,0,3-1.4,3-3v-3c0-0.6-0.5-1-1-1s-1,0.5-1,1v3
	c0,0.6-0.5,1-1,1h-8.1c-0.6,0-1-0.5-1-1v-8.1c0-0.6,0.5-1,1-1h3c0.6,0,1-0.5,1-1c0-0.6-0.5-1-1-1H-30.5z"/>
<circle cx="-66" cy="67.8" r="16"/>
<path class="st0" d="M-59.2,60.3c-0.7-0.7-1.8-0.7-2.5,0l-1,1l3.1,3.1l1-1c0.7-0.7,0.7-1.8,0-2.5L-59.2,60.3z M-68.7,67.3
	c-0.2,0.2-0.3,0.4-0.4,0.7l-0.9,2.8c-0.1,0.3,0,0.6,0.2,0.8c0.2,0.2,0.5,0.3,0.8,0.2l2.8-0.9c0.3-0.1,0.5-0.2,0.7-0.4l5.3-5.3
	l-3.1-3.1L-68.7,67.3z M-71.1,61.7c-1.7,0-3,1.4-3,3v8.1c0,1.7,1.4,3,3,3h8.1c1.7,0,3-1.4,3-3v-3c0-0.6-0.5-1-1-1s-1,0.5-1,1v3
	c0,0.6-0.5,1-1,1h-8.1c-0.6,0-1-0.5-1-1v-8.1c0-0.6,0.5-1,1-1h3c0.6,0,1-0.5,1-1c0-0.6-0.5-1-1-1H-71.1z"/>
<circle cx="100.3" cy="16" r="16"/>
<circle cx="58.7" cy="16" r="16"/>
<circle cx="16" cy="16" r="16"/>
<circle cx="-25.4" cy="16" r="16"/>
<circle cx="-66" cy="16" r="16"/>
<path class="st0" d="M-59.2,8.6c-0.7-0.7-1.8-0.7-2.5,0l-1,1l3.1,3.1l1-1c0.7-0.7,0.7-1.8,0-2.5L-59.2,8.6z"/>
<path class="st0" d="M-68.7,15.5c-0.2,0.2-0.3,0.4-0.4,0.7L-70,19c-0.1,0.3,0,0.6,0.2,0.8s0.5,0.3,0.8,0.2l2.8-0.9
	c0.3-0.1,0.5-0.2,0.7-0.4l5.3-5.3l-3.1-3.1L-68.7,15.5z"/>
<path class="st0" d="M-71.1,9.9c-1.7,0-3,1.4-3,3v8.1c0,1.7,1.4,3,3,3h8.1c1.7,0,3-1.4,3-3v-3c0-0.6-0.5-1-1-1s-1,0.5-1,1v3
	c0,0.6-0.5,1-1,1h-8.1c-0.6,0-1-0.5-1-1v-8.1c0-0.6,0.5-1,1-1h3c0.6,0,1-0.5,1-1s-0.5-1-1-1H-71.1z"/>
<g>
</g>
<g>
</g>
<g>
</g>
<g>
</g>
<g>
</g>
<g>
</g>
<g>
</g>
<path class="st0" d="M-19.1,24h-12.7c-0.9,0-1.6-0.7-1.6-1.6c0-0.9,0.7-1.6,1.6-1.6h12.7c0.9,0,1.6,0.7,1.6,1.6
	C-17.4,23.3-18.1,24-19.1,24z"/>
<path class="st0" d="M-19.1,17.6h-12.7c-0.9,0-1.6-0.7-1.6-1.6s0.7-1.6,1.6-1.6h12.7c0.9,0,1.6,0.7,1.6,1.6S-18.1,17.6-19.1,17.6z"
	/>
<path class="st0" d="M-19.1,11.3h-12.7c-0.9,0-1.6-0.7-1.6-1.6S-32.7,8-31.8,8h12.7c0.9,0,1.6,0.7,1.6,1.6S-18.1,11.3-19.1,11.3z"/>
<path class="st0" d="M104.5,22.6L93.7,11.7c-0.6-0.6-0.6-1.7,0-2.3c0.6-0.6,1.7-0.6,2.3,0l10.8,10.8c0.6,0.6,0.6,1.7,0,2.3
	C106.2,23.2,105.2,23.2,104.5,22.6z"/>
<path class="st1" d="M25.7,13.6L18,6.8c-1.1-1-2.9-1-4,0l-7.7,6.8c-0.4,0.4-0.5,1-0.1,1.4c0.4,0.4,1,0.5,1.4,0.1L8,14.8V21
	c0,0.9,0,1.7,0.1,2.3c0.1,0.7,0.3,1.3,0.8,1.8c0.5,0.5,1.1,0.7,1.8,0.8C11.3,26,12,26,12.9,26h6.1c0.9,0,1.7,0,2.3-0.1
	c0.7-0.1,1.3-0.3,1.8-0.8c0.5-0.5,0.7-1.1,0.8-1.8C24,22.7,24,21.9,24,21v-6.2l0.3,0.3c0.4,0.4,1,0.3,1.4-0.1
	C26.1,14.6,26.1,14,25.7,13.6z M19.6,22.1c0,0.6-0.5,1.1-1.1,1.1c-0.6,0-1.1-0.5-1.1-1.1v-4.3c0-0.8-0.6-1.4-1.4-1.4
	s-1.4,0.6-1.4,1.4v4.3c0,0.6-0.5,1.1-1.1,1.1c-0.6,0-1.1-0.5-1.1-1.1v-4.3c0-2,1.6-3.6,3.6-3.6c2,0,3.6,1.6,3.6,3.6V22.1z"/>
<g>
	<path class="st0" d="M57.8,21.3c-1,0-1.8,0.8-1.8,1.8c0,1,0.8,1.8,1.8,1.8c1,0,1.8-0.8,1.8-1.8C59.6,22.1,58.8,21.3,57.8,21.3z"/>
	<path class="st0" d="M63.6,10c-0.5-0.9-1.2-1.6-2.1-2.1c-0.9-0.5-2-0.8-3.1-0.8c-1.4,0-2.6,0.4-3.5,0.9c-0.9,0.5-1.3,1.1-1.3,1.1
		c-0.2,0.1-0.2,0.3-0.2,0.5c0,0.2,0.1,0.4,0.3,0.5l1.3,1c0.3,0.2,0.6,0.2,0.9,0c0,0,0.2-0.3,0.6-0.6c0.5-0.3,1.1-0.5,2.1-0.5
		c0.8,0,1.5,0.3,2,0.7c0.2,0.2,0.4,0.4,0.5,0.7c0.1,0.2,0.2,0.4,0.2,0.5c0,0.5-0.1,0.8-0.2,1.1c-0.1,0.2-0.2,0.4-0.4,0.6
		c-0.3,0.3-0.6,0.5-1,0.7c-0.4,0.2-0.8,0.4-1.2,0.7c-0.5,0.3-1,0.7-1.4,1.2c-0.2,0.3-0.3,0.6-0.4,1c-0.1,0.3-0.1,0.7-0.1,1.1
		c0,0.4,0,0.7,0,0.7c0,0.4,0.3,0.7,0.7,0.7h1.6c0.4,0,0.7-0.3,0.7-0.7c0,0,0-0.3,0-0.7c0-0.1,0-0.2,0-0.3c0-0.1,0-0.1,0.1-0.2
		c0-0.1,0.1-0.1,0.3-0.2c0.2-0.1,0.6-0.3,1.1-0.6c0.7-0.4,1.5-0.9,2.2-1.7c0.3-0.4,0.6-0.9,0.9-1.5c0.2-0.6,0.3-1.2,0.3-1.9
		C64.1,11.3,63.9,10.6,63.6,10z"/>
</g>
<path class="st2" d="M88.1-23L75.2-10.1 M75.2-23l12.9,12.9"/>
<path class="st0" d="M104.5,22.6L93.7,11.7c-0.6-0.6-0.6-1.7,0-2.3c0.6-0.6,1.7-0.6,2.3,0l10.8,10.8c0.6,0.6,0.6,1.7,0,2.3
	C106.2,23.2,105.2,23.2,104.5,22.6z"/>
<path class="st0" d="M106.9,11.7L96,22.6c-0.6,0.6-1.7,0.6-2.3,0c-0.6-0.6-0.6-1.7,0-2.3l10.8-10.8c0.6-0.6,1.7-0.6,2.3,0
	C107.5,10.1,107.5,11.1,106.9,11.7z"/>
</svg>
