<?xml version="1.0" encoding="utf-8"?>
<!-- Generator: Adobe Illustrator 27.3.1, SVG Export Plug-In . SVG Version: 6.00 Build 0)  -->
<svg version="1.1" id="Layer_1" xmlns="http://www.w3.org/2000/svg" xmlns:xlink="http://www.w3.org/1999/xlink" x="0px" y="0px"
	 viewBox="0 0 32 32" style="enable-background:new 0 0 32 32;" xml:space="preserve">
<style type="text/css">
	.st0{fill:#010101;}
	.st1{fill:#FFFFFF;}
</style>
<circle class="st0" cx="16" cy="16" r="16"/>
<path class="st1" d="M23.7,7.9c-0.7-0.7-1.8-0.7-2.5,0l-1,1l3.1,3.1l1-1c0.7-0.7,0.7-1.8,0-2.5L23.7,7.9z"/>
<path class="st1" d="M14.2,14.9c-0.2,0.2-0.3,0.4-0.4,0.7l-0.9,2.8c-0.1,0.3,0,0.6,0.2,0.8c0.2,0.2,0.5,0.3,0.8,0.2l2.8-0.9
	c0.3-0.1,0.5-0.2,0.7-0.4l5.3-5.3l-3.1-3.1L14.2,14.9z"/>
<path class="st1" d="M10.9,9.9c-1.7,0-3,1.4-3,3v8.1c0,1.7,1.4,3,3,3h8.1c1.7,0,3-1.4,3-3v-3c0-0.6-0.5-1-1-1s-1,0.5-1,1v3
	c0,0.6-0.5,1-1,1h-8.1c-0.6,0-1-0.5-1-1v-8.1c0-0.6,0.5-1,1-1h3c0.6,0,1-0.5,1-1s-0.5-1-1-1H10.9z"/>
</svg>
