<?xml version="1.0" encoding="utf-8"?>
<!-- Generator: Adobe Illustrator 27.3.1, SVG Export Plug-In . SVG Version: 6.00 Build 0)  -->
<svg version="1.1" id="Layer_1" xmlns="http://www.w3.org/2000/svg" xmlns:xlink="http://www.w3.org/1999/xlink" x="0px" y="0px"
	 viewBox="0 0 32 32" style="enable-background:new 0 0 32 32;" xml:space="preserve">
<style type="text/css">
	.st0{fill:#010101;}
	.st1{fill:#FFFFFF;}
</style>
<circle class="st0" cx="16" cy="16" r="16"/>
<g>
	<path class="st1" d="M26.3,8.8c-0.4,1.5-0.9,3-1.4,4.4c-1,2.9-1.9,5.7-3.1,8.6c-0.4,1-0.8,1.9-1.4,2.7c-0.8,1.1-1.9,1.7-3.3,1.8
		c-0.9,0.1-1.7-0.1-2.5-0.5c-2.3-1-4.6-2.1-6.9-3.1c-1.1-0.5-1.7-1.4-2-2.6c-0.1-0.7-0.1-1.5,0-2.2c0-0.2,0.1-0.2,0.3-0.1
		c2.4,1,4.8,1.9,7.1,2.9c0.5,0.2,1,0.4,1.6,0.6c0.1,0.1,0.2,0.1,0.2,0.3c0,0.5,0,1,0.2,1.5c0.5,1.5,2,2,3.3,1.1
		c0.5-0.4,0.9-1,1.2-1.5c0.6-1.1,1-2.2,1.4-3.4c1.2-3.2,2.3-6.4,3.3-9.6c0.1-0.2,0-0.2-0.2-0.3c-3.2-0.6-6.5-1.3-9.7-1.9
		c-0.2,0-0.3,0-0.3,0.2c-1,2.6-1.9,5.3-2.9,7.9c-0.2,0.6-0.4,1.1-0.6,1.7c-0.2,0.6-0.9,0.7-1.3,0.3c-0.3-0.2-0.3-0.6-0.2-1
		c0.5-1.3,0.9-2.6,1.4-3.8c0.8-2.1,1.6-4.3,2.3-6.4c0.1-0.3,0.3-0.6,0.6-0.7c0.2-0.1,0.4,0,0.5,0c3.8,0.8,7.7,1.5,11.5,2.3
		C26,8.1,26.2,8.3,26.3,8.8C26.3,8.8,26.3,8.8,26.3,8.8z"/>
	<path class="st1" d="M19.1,19.3c0,0.5-0.4,0.9-0.9,0.8c-0.1,0-0.2,0-0.3-0.1c-1.1-0.3-2.1-0.7-3.2-1c-0.2-0.1-0.4-0.2-0.6-0.4
		c-0.2-0.3-0.2-0.6,0-0.9c0.2-0.3,0.5-0.4,0.8-0.3c0.4,0.1,0.8,0.2,1.2,0.4c0.8,0.2,1.5,0.5,2.3,0.8C18.9,18.6,19.1,18.9,19.1,19.3z
		"/>
	<path class="st1" d="M16.2,14.1c0.1,0,0.2,0,0.3,0.1c1.1,0.4,2.2,0.7,3.3,1.1c0.3,0.1,0.5,0.3,0.6,0.6c0.1,0.6-0.4,1.1-1.1,0.9
		c-0.9-0.3-1.9-0.6-2.8-0.9c-0.2-0.1-0.5-0.1-0.7-0.3c-0.3-0.2-0.5-0.5-0.4-0.8c0-0.3,0.3-0.6,0.6-0.7
		C16.1,14.1,16.1,14.1,16.2,14.1z"/>
	<path class="st1" d="M17.6,10.8c0.1,0,0.2,0,0.3,0c1.1,0.3,2.2,0.6,3.3,0.9c0.6,0.2,0.9,0.8,0.5,1.3c-0.2,0.3-0.6,0.4-1,0.3
		c-0.9-0.2-1.8-0.5-2.7-0.7c-0.3-0.1-0.5-0.1-0.8-0.2c-0.4-0.2-0.5-0.5-0.5-0.9C16.9,11.1,17.2,10.8,17.6,10.8z"/>
	<path class="st1" d="M15.2,11.7c-0.6,0-0.9-0.4-0.9-0.9c0-0.5,0.4-0.8,0.8-0.8c0.5,0,0.9,0.4,0.9,0.8C16,11.4,15.6,11.7,15.2,11.7z
		"/>
	<path class="st1" d="M12.6,16.5c0.5,0,0.9,0.4,0.9,0.8c0,0.4-0.4,0.8-0.8,0.8c-0.5,0-0.9-0.4-0.9-0.9
		C11.8,16.8,12.1,16.4,12.6,16.5z"/>
	<path class="st1" d="M13.9,15c-0.5,0-0.9-0.4-0.9-0.8c0-0.5,0.4-0.8,0.9-0.8c0.5,0,0.9,0.4,0.9,0.8C14.8,14.7,14.4,15,13.9,15z"/>
</g>
</svg>
