<?xml version="1.0" encoding="utf-8"?>
<!-- Generator: Adobe Illustrator 27.3.1, SVG Export Plug-In . SVG Version: 6.00 Build 0)  -->
<svg version="1.1" id="Layer_1" xmlns="http://www.w3.org/2000/svg" xmlns:xlink="http://www.w3.org/1999/xlink" x="0px" y="0px"
	 viewBox="0 0 32 32" style="enable-background:new 0 0 32 32;" xml:space="preserve">
<style type="text/css">
	.st0{fill:#FFFFFF;}
</style>
<circle cx="16" cy="16" r="16"/>
<path class="st0" d="M22.3,24H9.6C8.7,24,8,23.3,8,22.3c0-0.9,0.7-1.6,1.6-1.6h12.7c0.9,0,1.6,0.7,1.6,1.6C24,23.3,23.3,24,22.3,24z
	"/>
<path class="st0" d="M22.3,17.6H9.6C8.7,17.6,8,16.9,8,16s0.7-1.6,1.6-1.6h12.7c0.9,0,1.6,0.7,1.6,1.6S23.3,17.6,22.3,17.6z"/>
<path class="st0" d="M22.3,11.3H9.6C8.7,11.3,8,10.6,8,9.6S8.7,8,9.6,8h12.7C23.3,8,24,8.7,24,9.6S23.3,11.3,22.3,11.3z"/>
</svg>
