<?xml version="1.0" encoding="utf-8"?>
<!-- Generator: Adobe Illustrator 27.3.1, SVG Export Plug-In . SVG Version: 6.00 Build 0)  -->
<svg version="1.1" id="Layer_1" xmlns="http://www.w3.org/2000/svg" xmlns:xlink="http://www.w3.org/1999/xlink" x="0px" y="0px"
	 viewBox="0 0 32 32" style="enable-background:new 0 0 32 32;" xml:space="preserve">
<style type="text/css">
	.st0{fill:#010101;}
	.st1{fill:#FFFFFF;}
</style>
<circle class="st0" cx="16" cy="16" r="16"/>
<path class="st1" d="M9.7,20.8c0,0.9,0,1.8,0,2.8c0,0.6,0.4,1,1,1c0.6,0,1.2,0,1.7,0c0.8,0,1.2-0.4,1.2-1.2c0-1.5,0-3.1,0-4.6
	c0-0.6,0.3-0.9,0.9-0.9c0.9,0,1.7,0,2.6,0c0.8,0,1,0.2,1,1c0,1.5,0,3,0,4.5c0,0.7,0.4,1.1,1.1,1.1c0.5,0,0.9,0,1.4,0
	c0.9,0,1.2-0.3,1.2-1.2c0-1.8,0-3.6,0-5.4c0-0.6,0.3-0.9,0.9-0.9c0.3,0,0.6,0,0.8,0c0.4,0,0.8-0.2,0.9-0.6c0.2-0.4,0-0.7-0.3-1
	c-2.5-2.8-5-5.6-7.5-8.4c-0.6-0.6-1.2-0.6-1.8,0c-0.8,0.9-1.6,1.8-2.4,2.6c-1.7,1.9-3.5,3.8-5.2,5.7c-0.3,0.3-0.4,0.6-0.2,1
	c0.2,0.4,0.5,0.5,0.9,0.5c0.3,0,0.6,0,0.8,0c0.6,0,1,0.3,1,1C9.7,19,9.7,19.9,9.7,20.8z"/>
</svg>
