<?xml version="1.0" encoding="utf-8"?>
<!-- Generator: Adobe Illustrator 27.3.1, SVG Export Plug-In . SVG Version: 6.00 Build 0)  -->
<svg version="1.1" id="Layer_1" xmlns="http://www.w3.org/2000/svg" xmlns:xlink="http://www.w3.org/1999/xlink" x="0px" y="0px"
	 viewBox="0 0 32 32" style="enable-background:new 0 0 32 32;" xml:space="preserve">
<style type="text/css">
	.st0{fill:#010101;}
	.st1{fill:#FFFFFF;}
</style>
<circle class="st0" cx="16" cy="16" r="16"/>
<g>
	<path class="st1" d="M15,21.3c-1,0-1.8,0.8-1.8,1.8c0,1,0.8,1.8,1.8,1.8c1,0,1.8-0.8,1.8-1.8C16.9,22.1,16.1,21.3,15,21.3z"/>
	<path class="st1" d="M20.9,10c-0.5-0.9-1.2-1.6-2.1-2.1c-0.9-0.5-2-0.8-3.1-0.8c-1.4,0-2.6,0.4-3.5,0.9c-0.9,0.5-1.3,1.1-1.3,1.1
		c-0.2,0.1-0.2,0.3-0.2,0.5c0,0.2,0.1,0.4,0.3,0.5l1.3,1c0.3,0.2,0.6,0.2,0.9,0c0,0,0.2-0.3,0.6-0.6c0.5-0.3,1.1-0.5,2.1-0.5
		c0.8,0,1.5,0.3,2,0.7c0.2,0.2,0.4,0.4,0.5,0.7c0.1,0.2,0.2,0.4,0.2,0.5c0,0.5-0.1,0.8-0.2,1.1c-0.1,0.2-0.2,0.4-0.4,0.6
		c-0.3,0.3-0.6,0.5-1,0.7c-0.4,0.2-0.8,0.4-1.2,0.7c-0.5,0.3-1,0.7-1.4,1.2c-0.2,0.3-0.3,0.6-0.4,1c-0.1,0.3-0.1,0.7-0.1,1.1
		c0,0.4,0,0.7,0,0.7c0,0.4,0.3,0.7,0.7,0.7h1.6c0.4,0,0.7-0.3,0.7-0.7c0,0,0-0.3,0-0.7c0-0.1,0-0.2,0-0.3c0-0.1,0-0.1,0.1-0.2
		c0-0.1,0.1-0.1,0.3-0.2c0.2-0.1,0.6-0.3,1.1-0.6c0.7-0.4,1.5-0.9,2.2-1.7c0.3-0.4,0.6-0.9,0.9-1.5c0.2-0.6,0.3-1.2,0.3-1.9
		C21.4,11.3,21.2,10.6,20.9,10z"/>
</g>
</svg>
